<?xml version="1.0" encoding="UTF-8"?>
<svg id="Camada_1" data-name="Camada 1" xmlns="http://www.w3.org/2000/svg" viewBox="0 0 711.91452831 709.78042255">
  <defs>
    <style>
      .cls-1 {
        fill: #1f1e27;
      }

      .cls-1, .cls-2 {
        stroke-width: 0px;
      }

      .cls-2 {
        fill: #b98264;
      }
    </style>
  </defs>
  <g>
    <path class="cls-1" d="M45.98011791,367.53071392c-.00296428.43680832-.15766723.80991543-.46707312,1.11325454-.30947498.30333911-.67947961.45500867-1.11932132.45197527l-42.76171444-.25177146c-.48230919-.00303339-.87361664-.15773634-1.17998914-.46410884-.30333911-.30940589-.45500867-.682513-.45197527-1.11932132l.0333673-5.78164345c.00303339-.48230919.15773634-.87665003.46714223-1.17695575.30940589-.3063725.70374674-.45500867,1.18605592-.45500867l15.37019274.09100173-15.74329985-14.9394512c-.21840416-.17290329-.47017562-.47017562-.75228099-.89181699-.28210537-.41557458-.42164136-.97371855-.41860797-1.67746528l.03943408-6.50055714c.00303339-.35187337.1365026-.66431265.40040763-.95248481.26390503-.27907198.59454466-.42164136.98585211-.42164136.30940589.00303339.57027753.09403512.78868169.26997181l19.73220915,18.17911291,21.85254954-19.18619875c.26693842-.21840416.55207718-.32153946.85541629-.32153946.39737424,0,.72498047.14863616.98585211.43377493.25783824.28513876.38827406.60364483.38827406.94945142l-.04246748,6.77052895c-.00303339.74621421-.1698699,1.31952513-.50050953,1.7381331-.33063963.41254119-.56117735.68554639-.69464656.81598221l-17.4996333,15.7918341,17.01125733.10010191c.43984171.00303339.80991543.16076973,1.11325454.46714223.3063725.30940589.45804206.70374674.45500867,1.18302253l-.03343641,5.78467684Z"/>
    <path class="cls-1" d="M52.62938032,295.33600556c-.76441456,3.8220728-2.05360578,6.97983294-3.86757366,9.47328043-1.81396788,2.49951427-4.19821329,4.25584772-7.14666945,5.27203374-2.94845616,1.01921941-6.4125888,1.20122288-10.38943328.54297701-1.85333323-.32457285-3.68550146-.67037943-5.48733578-1.03135298-1.80486771-.35794015-3.64613611-.74621421-5.52987199-1.16785558-3.87970723-.91001733-6.97073276-2.41761271-9.27611001-4.52885292-2.30234385-2.11124021-3.84330653-4.68658926-4.62288805-7.72301376-.77654812-3.0364245-.79778186-6.40045524-.06066782-10.08905882.73711404-3.69467037,2.05057239-6.80389625,3.93734166-9.33071105,1.88980266-2.52681479,4.30134859-4.32258233,7.23767118-5.390336,2.93632259-1.06472028,6.37315472-1.27099087,10.30442959-.62184518,1.90800301.29120555,3.76443836.61577839,5.56627268.97978533,1.80183432.35794015,3.62186898.76441456,5.45100382,1.21638983,3.92520809.91911751,7.05263432,2.41457932,9.38531209,4.48638545s3.85847349,4.61985466,4.5713204,7.64414559.68857978,6.4459561-.07280139,10.2680289ZM45.21880585,293.8557107c.55814396-2.79071982.18807025-5.22956627-1.11628793-7.32260613-1.30132479-2.08697308-3.80690584-3.57030133-7.51674316-4.44695136-1.8746357-.46410884-3.6158022-.85541629-5.22653288-1.17695575s-3.34583039-.62184518-5.21136592-.90395055c-2.50558105-.41254119-4.62902332-.35490676-6.36405454.1698699-1.73206632.52477666-3.09709232,1.42569382-4.08907955,2.69971809-.99185055,1.27402427-1.66829677,2.83925408-2.03837048,4.68355587-.36097354,1.80486771-.32457285,3.48536638.10010191,5.04452941.42467476,1.55612964,1.33772548,2.91205546,2.73915217,4.06171069s3.33673022,2.01720509,5.80894397,2.59961618c1.83823501.4095078,3.56423455.77958151,5.17496523,1.09808758,1.60769729.32457285,3.36403074.65217909,5.26293357.98281872,3.75837158.61881179,6.64615992.20930399,8.64819805-1.21942323,2.00507152-1.42872721,3.28212918-3.52176708,3.82813958-6.27001942Z"/>
    <path class="cls-1" d="M64.00763037,249.89580678c-.19413703.44590849-.49140936.74621421-.89788377.90091716-.40040763.16076973-.80384864.14863616-1.20728966-.02730052l-39.16714598-17.15989349c-.43991022-.19413703-.74014743-.49140936-.89788377-.89788377-.15773634-.40040763-.13953599-.82508238.05460104-1.26492409l2.08393969-4.75332387c.24267129-.56117735.57634431-.91608411,1.00405246-1.06775367.42157278-.14863616.73408065-.22750433.92821768-.23660451l26.74844278-2.12034038-16.51984797-21.22463758c-.12740243-.14863616-.27907198-.43074154-.45500867-.84631612-.17897008-.4095078-.14560277-.89788377.1031353-1.45906112l2.05360578-4.69265604c.19413703-.43984171.49444275-.74014743.89485038-.89788377.40647441-.16076973.82811577-.13953599,1.26795748.05156765l39.16714598,17.16292688c.40344102.17897008.682513.46714223.84024934.87058325s.13946602.82508238-.05460104,1.26492409l-2.21437551,5.05362958c-.19413703.4428751-.48534258.73104726-.88271681.87058325-.39434084.13953599-.79171508.11830225-1.19212271-.05763443l-26.05076283-11.41465074,12.37320233,15.46119447c.26997181.36097354.46714223.75531439.58847787,1.18908931.12133564.43984171.0667346.91608411-.16380312,1.43479399l-1.07988723,2.46614697c-.24570468.56421075-.56421075.93731785-.95855159,1.1253881-.38827406.18503686-.81294882.30030572-1.2618907.3427732l-19.75344289,1.38322634,26.05076283,11.41465074c.40040763.17593668.682513.46714223.84024934.86754986.15773634.40647441.14863616.80991543-.02730052,1.20728966l-2.21437551,5.05362958Z"/>
    <path class="cls-1" d="M96.15550932,186.35232986c-.25783824.35490676-.56724414.56117735-.93428446.62487857-.36704032.05763443-.72801387-.03943408-1.08292063-.29727233l-34.94769895-25.09221124c-.39130745-.28210537-.61881179-.60667822-.67947961-.97068515-.06066782-.36704032.03943408-.72801387.29423894-1.08595402l9.99805709-13.92326518c1.78666736-2.4904141,3.69467037-4.20731347,5.72097563-5.15373149,2.02630526-.94338463,4.02834339-1.27099087,6.00611439-.98281872,1.97473761.28513876,3.81600601,1.04045315,5.52380521,2.26897655,1.53186251,1.10112097,2.66635078,2.27504333,3.40649821,3.53693403.74014743,1.25885731,1.18605592,2.49648088,1.33772548,3.70983732s.15166956,2.30537724-.00303339,3.273029c1.73206632-.91305072,3.77657193-1.36199261,6.13351682-1.34075887,2.35694489.02426713,4.65625535.84024934,6.89793138,2.45098001,1.77756719,1.27402427,3.17596049,2.91205546,4.1951799,4.9110602,1.01921941,1.99597135,1.44086078,4.18607973,1.26795748,6.57032514-.17593668,2.37817863-1.13145488,4.78365778-2.8665546,7.1982371l-10.2680289,14.30243907ZM76.59620346,168.98919916l7.92928435-11.04457702c1.88980266-2.62995009,2.73915217-5.05059619,2.55108192-7.2649717-.19110364-2.21134212-1.33469209-4.07384426-3.43386879-5.57840625-2.09903659-1.50759538-4.17387611-1.95957066-6.22444849-1.35592582-2.047539.60364483-4.02227661,2.22044229-5.91207927,4.85342577l-7.92928435,11.04154363,13.01931463,9.34891139ZM94.52354491,181.86291102l8.31452503-11.57542047c1.88980266-2.63601687,2.660284-5.16586506,2.30537724-7.60471151-.35187337-2.43581306-1.59859711-4.41965084-3.73107106-5.95454674-2.16887464-1.55916303-4.45605154-2.10820682-6.86153068-1.65319815-2.40244576.45804206-4.55008666,2.00507152-6.43988932,4.638055l-8.31452503,11.57845386,14.72711383,10.57136801Z"/>
    <path class="cls-1" d="M145.31464561,129.42771234c-2.59658279,2.41457932-5.26596696,4.00104287-8.00208574,4.75635726-2.73915217.75531439-5.5268386.60061144-8.37215946-.46107545s-5.71187545-3.14865997-8.60876396-6.25485246l-18.17304612-19.51987178c-.32760624-.34883998-.48534258-.71284691-.47320901-1.08595402.01516696-.37007372.17897008-.70678013.50354292-1.00101907l.86148307-.80688203c.35490676-.32760624.7158803-.48534258,1.08595402-.47320901.37310711.01213356.72194708.19717042,1.04955332.54904379l18.30954872,19.66244116c3.342797,3.58850168,6.64615992,5.44797043,9.91008875,5.58143964,3.26392883.13043582,6.33978741-1.14662184,9.22150897-3.83420636,2.85442103-2.65421722,4.3316825-5.61480694,4.43178441-8.87873577.10010191-3.26696222-1.52276234-6.69469417-4.86252594-10.28319585l-18.30954872-19.65940777c-.32760624-.35490676-.4762424-.72194708-.44894188-1.11022115.03033391-.38524067.2032372-.72801387.52477666-1.02528619l.86451647-.80991543c.32153946-.29423894.66734604-.43680832,1.04045315-.42467476.37007372.01213356.71891369.19717042,1.04651993.54904379l18.17607951,19.51380499c2.89385512,3.10922588,4.77759099,6.11228308,5.65120763,9.01220498.87058325,2.8999219.84328273,5.67547476-.08796834,8.33879215-.93125107,2.660284-2.71185165,5.2174327-5.33876835,7.66537933Z"/>
    <path class="cls-1" d="M192.79631661,93.13622114c-3.01215737,1.8746357-5.87567857,2.97575668-8.57539666,3.31246309-2.69971809.3397398-5.0839635.09403512-7.14666945-.74014743-2.06270595-.83721595-3.66433646-2.08393969-4.79882473-3.74927141-.18503686-.29727233-.23660451-.62791196-.15166956-.9888855.08493495-.36400693.29423894-.64611231.62791196-.8523829l1.11628793-.69767995c.37310711-.23053772.73104726-.29727233,1.07382045-.20020381s.62791196.28513876.84631612.55511057c.79474847.95248481,1.90193622,1.69566563,3.31852987,2.23560925,1.41962704.53691023,3.1031591.67644622,5.05362958.41557458,1.95350387-.25480485,4.14057886-1.13448827,6.55819157-2.63298348,3.64613611-2.26290977,5.89691231-4.57435379,6.74929521-6.93736546.85541629-2.35997828.59151127-4.65625535-.79474847-6.8888312-.9221509-1.48636164-2.10517343-2.41457932-3.5460342-2.78768643-1.44086078-.36704032-3.2760624-.35794015-5.51470503.02123374-2.23560925.38524067-5.02632906.99495228-8.36912606,1.83216823-3.17596049.7856483-5.8999457,1.24975714-8.17802243,1.40142669-2.27504333.15470295-4.21944703-.17593668-5.82714432-.97978533s-3.04552467-2.23560925-4.31651555-4.28314824c-1.17702773-1.89586944-1.73206632-3.91004114-1.66229833-6.03948169.069768-2.13247395.7856483-4.23461399,2.1476409-6.31855368,1.36199261-2.0809063,3.41863178-3.97374235,6.1729509-5.68457494,2.19617516-1.365026,4.29528181-2.25380959,6.30338672-2.67848435,2.00507152-.41860797,3.8554401-.47017562,5.54503894-.15470295,1.69263224.31850607,3.16686032.87058325,4.42875102,1.65926494,1.26492409.7856483,2.2507762,1.71083258,2.95452294,2.76645269.16380312.26087164.22447094.57027753.18807025.92518429-.0333673.36097354-.25783824.66431265-.66734604.91608411l-1.11628793.69464656c-.18503686.11526886-.46410884.18503686-.83418255.20930399-.37310711.02123374-.73408065-.16076973-1.08595402-.56421075-1.37715956-1.71993276-3.30336292-2.65118383-5.78771023-2.78768643-2.48131393-.13346921-5.09913045.65217909-7.85041619,2.35997828-2.75431913,1.71083258-4.66838891,3.64613611-5.74827615,5.80894397-1.07988723,2.16584125-.90395055,4.4014505.52781005,6.70682774.9221509,1.48939503,2.07180613,2.46614697,3.43986552,2.93025581,1.37109278.46714223,3.11832606.53691023,5.24169983.22447094,2.12640717-.31243928,4.7745576-.86148307,7.9474847-1.64713137,3.34583039-.83721595,6.20631821-1.37412617,8.58449683-1.61073068,2.37514524-.2396379,4.41055067.00303339,6.10014952.73408065,1.68959885.72801387,3.16989371,2.11730699,4.43785119,4.1618126,1.41052686,2.27504333,2.03843882,4.55008666,1.88373588,6.83423016-.15470295,2.29021029-1.01315263,4.49245223-2.57838244,6.62795957-1.56219642,2.12640717-3.79780567,4.0920446-6.69772756,5.89084553Z"/>
    <path class="cls-1" d="M232.63687541,71.59914427c-.40344102.17593668-.77654812.19110364-1.11932132.05460104-.34883998-.13953599-.60667822-.40647441-.77958151-.81294882l-16.9869902-39.59788751c-.17290329-.40040763-.19110364-.77654812-.05156765-1.11932132.13346921-.34580659.40647441-.60667822.80688203-.77958151l1.14662184-.49140936c.40344102-.17290329.7795081-.18807025,1.12235471-.05156765.34580659.1365026.60667822.4095078.77654812.80991543l16.99002359,39.59788751c.17290329.40344102.19110364.77958151.05156765,1.12235471-.13953599.34580659-.40647441.60667822-.80991543.77958151l-1.14662184.48837597Z"/>
    <path class="cls-1" d="M264.69375263,59.46254645c-.42770815.10616869-.79778186.06370121-1.11932132-.12133564-.31850607-.19413703-.53084344-.50050953-.64004552-.92518429l-10.58956836-41.70002755c-.11830225-.46714223-.08190156-.85844968.10920208-1.17998914.18807025-.31547268.49747614-.53084344.91911751-.64004552l1.33772548-.3397398c.42467476-.10616869.77048134-.08190156,1.03741976.07583478.26390503.16076973.43074154.27603859.49444275.34883998l32.61198779,29.94260362-8.94243698-35.20857058c-.11830225-.46714223-.08190156-.86148307.10920208-1.17998914.18807025-.31547268.49747614-.53084344.9221509-.63701213l1.14358845-.29423894c.46714223-.11830225.86148307-.08190156,1.17998914.10616869.31850607.19413703.53994362.51870988.65521248.9888855l10.5744014,41.63632634c.10920208.42467476.069768.80688203-.11526886,1.14662184-.18503686.3427732-.48837597.56724414-.91305072.67341283l-1.40142669.35490676c-.42164136.10920208-.75834778.08190156-1.00405246-.08493495-.24267129-.16076973-.41860797-.27603859-.52477666-.33670641l-32.51491928-29.83340154,8.92423664,35.14183598c.10616869.43074154.0667346.79474847-.12436904,1.11932132-.19110364.31850607-.51870988.53691023-.98585211.65521248l-1.14358845.29120555Z"/>
    <path class="cls-1" d="M325.90758518,47.4048168c-.43680832.02730052-.79474847-.08493495-1.07078706-.33063963-.27907198-.24570468-.43074154-.58544448-.45500867-1.02831959l-2.52681479-42.94978469c-.02730052-.47927579.08190156-.85844968.33063963-1.13752167.24562859-.2730052.58847787-.42770815,1.02528619-.45500867L348.78238752.00504736c.48230919-.03033391.86148307.07583478,1.14055506.32457285.27603859.24873807.43074154.612745.45804206,1.09505419l.05763443.98281872c.02730052.43680832-.08493495.79171508-.33063963,1.07382045-.24873807.2730052-.612745.42467476-1.0920208.45500867l-22.8869359,1.34379226.98281872,16.72308517,21.44304174-1.2618907c.48230919-.02730052.85844968.08493495,1.13752167.32760624.27907198.24873807.43377493.612745.46107545,1.0920208l.05763443.98281872c.02426713.43680832-.08796834.79474847-.33063963,1.07382045-.24873807.27907198-.612745.43074154-1.09505419.46107545l-21.44000835,1.25885731,1.01921941,17.37829765,23.40867917-1.37715956c.48230919-.02730052.86148307.07886817,1.14055506.33063963.27603859.24267129.43074154.60364483.46107545,1.08898741l.05460104.98585211c.02730052.43377493-.08493495.79171508-.33063963,1.07078706-.24873807.27603859-.612745.43074154-1.0920208.45500867l-26.09929709,1.5348959Z"/>
    <path class="cls-1" d="M394.47132437,49.2824859c-3.51873368-.44894188-6.43382254-1.39232652-8.74526656-2.83318729-2.31144402-1.43782738-4.00407626-3.13045962-5.0809301-5.07486332-1.07988723-1.94743709-1.5348959-3.92824148-1.36805939-5.93331301.04550087-.35187337.21537077-.63701213.50657631-.86754986.29423894-.22750433.63701213-.31547268,1.02831959-.26390503l1.30132479.16076973c.43377493.05763443.75531439.23053772.96158498.52174327.2032372.29120555.30940589.612745.30940589.96765176.01516696,1.23459018.4095078,2.51164784,1.17081131,3.8220728.76145883,1.31042496,1.97784866,2.48131393,3.65834734,3.50660012,1.67746528,1.03438637,3.93127488,1.72903293,6.755362,2.08393969,4.25584772.53994362,7.45910873.16076973,9.61281642-1.12842149,2.1476409-1.295258,3.38829787-3.24572848,3.72197089-5.85444484.21840416-1.7381331-.11526886-3.20326101-1.00101907-4.39841711-.8857502-1.19212271-2.31751081-2.34481133-4.29528181-3.45806586-1.977771-1.11022115-4.52885292-2.39334558-7.65627915-3.85240671-2.95755633-1.38929313-5.36910226-2.74218556-7.2316044-4.0586773-1.86250214-1.31952513-3.16686032-2.7967866-3.90700775-4.4348178s-.96158498-3.65523628-.65521248-6.04251509c.27907198-2.21437551,1.11628793-4.1284453,2.51164784-5.74220937,1.3983933-1.61073068,3.28212918-2.79375321,5.65120763-3.55513438,2.36907845-.75531439,5.15979827-.93125107,8.37519285-.52477666,2.56321549.32457285,4.75635726.95855159,6.57942531,1.89283605,1.82306806.94035124,3.29122935,2.06270595,4.40751728,3.37313091,1.11325454,1.31345835,1.9110364,2.67241757,2.39637897,4.07991104.48230919,1.40749347.66431265,2.74521895.54904379,4.00710965-.03640069.3063725-.18200347.58544448-.43680832.83721595-.25177146.25783824-.61881179.35187337-1.09505419.29423894l-1.30435818-.16683651c-.21840416-.02730052-.4762424-.14863616-.78261491-.36400693-.30333911-.21233738-.46410884-.58847787-.48534258-1.12235471.01516696-2.20224194-.89788377-4.13754547-2.73915217-5.80591058s-4.37111659-2.70881826-7.58347777-3.11225928c-3.21539457-.41254119-5.92421283-.11223547-8.12645478.88878359-2.19920855.99798567-3.47323282,2.84532086-3.81305036,5.53897216-.22135981,1.7381331.05467878,3.21842796.82819351,4.44391797.77048134,1.21942323,2.0809063,2.38121202,3.92824148,3.47626621s4.24978094,2.33571115,7.21037066,3.72803767c3.12439284,1.45602773,5.68457494,2.83925408,7.68054628,4.15271243s3.42166517,2.78161965,4.27404807,4.41358406c.8523829,1.63499781,1.1253881,3.64006933.82508238,6.03038152-.33670641,2.65421722-1.28615783,4.81399169-2.84228747,6.49449036-1.56219642,1.68049867-3.61883559,2.85138764-6.17598429,3.52176708-2.5571487.66734604-5.52987199.7856483-8.91816986.35794015Z"/>
    <path class="cls-1" d="M450.09158372,61.68602214c-3.37919769-1.08595402-6.06678221-2.55108192-8.07185374-4.39538371-2.00810491-1.8412684-3.35796396-3.81600601-4.05564391-5.93331301-.70071335-2.11124021-.78261491-4.13754547-.24873807-6.08194917.10920208-.33367302.32760624-.58544448.65824587-.75531439s.682513-.19110364,1.0586535-.07280139l1.24975714.40344102c.41557458.13346921.69767995.36400693.84934951.68857978.14863616.32457285.18807025.65824587.12133564,1.00708585-.20930399,1.22245662-.06066782,2.54501514.44590849,3.97070896.50354292,1.42872721,1.48636164,2.80588677,2.94845616,4.12541191,1.45906112,1.32559191,3.54300081,2.4206461,6.25181907,3.29426274,4.08597782,1.31952513,7.30440579,1.54096268,9.65831729.66734604,2.35087811-.87665003,3.93127488-2.56624888,4.73815691-5.06576315.53691023-1.66533172.47927579-3.16989371-.1698699-4.50458579-.65217909-1.33772548-1.84430179-2.73308539-3.5824349-4.1951799-1.7381331-1.45602773-4.00710965-3.18809405-6.81299643-5.19923236-2.65118383-1.9110364-4.76849082-3.6855702-6.35495437-5.32360139-1.58949694-1.64106459-2.59658279-3.33673022-3.02125754-5.0839635-.42467476-1.75026667-.26693842-3.76747176.47017562-6.06071543.68554639-2.12337378,1.86553553-3.84937332,3.53390064-5.17193184,1.66836511-1.3286253,3.73713784-2.14460751,6.20631821-2.45401341,2.46918036-.3063725,5.24776662.03943408,8.32969198,1.03135298,2.46008019.79474847,4.49851901,1.82003466,6.11834986,3.07889197,1.61679746,1.25582392,2.85442103,2.63601687,3.70680393,4.1284453s1.38625974,2.97879007,1.59859711,4.44998475c.21537077,1.47119469.14863616,2.81802034-.19717042,4.04047695-.09403512.29423894-.28817216.54297701-.58544448.74621421-.29727233.20020381-.67341283.23053772-1.13145488.08493495l-1.24975714-.40647441c-.20930399-.0667346-.4428751-.23357112-.70071335-.50354292-.25783824-.26693842-.35187337-.66127926-.2730052-1.18908931.42164136-2.16584125-.11526886-4.23764738-1.61679746-6.21541838-1.5015286-1.98080439-3.79477228-3.46716604-6.87669764-4.46515171-3.08495876-.99191889-5.80287719-1.20122288-8.15072191-.62184518-2.34784472.57331092-3.94037505,2.15370769-4.77152421,4.73815691-.53994362,1.66836511-.53994362,3.17596049-.00910017,4.51975275s1.6046639,2.72701861,3.21842796,4.14057886c1.61376407,1.42266043,3.74320463,3.08799215,6.39438845,4.99902854,2.80285338,2.00810491,5.06576315,3.84027314,6.78569591,5.49953808s2.84835425,3.37009752,3.38223108,5.13249775c.53691023,1.75936684.43680832,3.7856721-.30333911,6.07891578-.8190156,2.54198175-2.1506743,4.48941884-3.99497609,5.85141145-1.8412684,1.36199261-4.07991104,2.13550734-6.71592791,2.31751081-2.63601687.18807025-5.58143964-.24267129-8.83020151-1.295258Z"/>
    <path class="cls-2" d="M588.58105472,153.03962872c-2.30841063-2.64815044-3.84330653-5.22653288-4.60165431-7.72604715-.75834778-2.50254766-.91001733-4.79882473-.44894188-6.88579781.45804206-2.08697308,1.39232652-3.80083906,2.80285338-5.13856454.24267129-.20930399.55207718-.3063725.9221509-.27603859.37007372.02123374.67644622.17290329.91608411.44894188l2.02933865,2.33267776c.31850607.36400693.46714223.71891369.4428751,1.0586535-.02426713.3427732-.13043582.6491457-.32153946.92821768-.59757805.7856483-.99798567,1.78970075-1.19818949,3.00912398-.19717042,1.21638983-.06066782,2.57534905.4095078,4.06777747s1.44692756,3.09102554,2.93632259,4.79882473c2.28111011,2.62084992,4.42571763,4.14361225,6.43078915,4.56828701s3.7856721-.03943408,5.33876835-1.39232652c1.06775367-.92821768,1.64409798-2.00810491,1.72903293-3.23056153.08190156-1.2285234-.20020381-2.73915217-.84934951-4.52885292-.6491457-1.79576754-1.6016305-4.02227661-2.84835425-6.68862739-1.29829139-2.78161965-2.20527533-5.23563305-2.71488504-7.36204022-.5126431-2.12640717-.51870988-4.04047695-.01213356-5.74220937.50050953-1.69263224,1.62286424-3.30032952,3.36099735-4.81702508,1.64409798-1.4317606,3.50053334-2.26897655,5.56627268-2.51468123s4.20428007.13346921,6.4125888,1.13145488c2.20830873.99495228,4.34988285,2.68455113,6.41865558,5.06272976,1.64713137,1.88676927,2.83622069,3.76140497,3.56726794,5.61480694.73104726,1.85643536,1.08898741,3.62186898,1.07382045,5.29630087s-.28817216,3.17596049-.82508238,4.49548562c-.53387683,1.32559191-1.24672375,2.40547915-2.13550734,3.23056153-.21537077.18503686-.48534258.28513876-.81598221.30940589-.33063963.01820035-.64307891-.13953599-.93428446-.47320901l-2.11124021-2.42367949c-.18503686-.21537077-.31850607-.48837597-.39434084-.82204899s0-.70981352.22750433-1.1253881c1.08898741-1.26795748,1.52882912-2.88475494,1.32255852-4.84735899s-1.16178879-3.9221747-2.86048781-5.87264518c-1.72599954-1.98080439-3.50660012-3.25482866-5.34483513-3.82813958-1.83823501-.56724414-3.56423455-.15470295-5.17799862,1.25582392-1.03741976.90091716-1.64713137,1.94137031-1.82610145,3.11832606-.18200347,1.17695575.01213356,2.61781653.58241109,4.31651555s1.44086078,3.80993923,2.61478313,6.32462046c1.45602773,3.02429093,2.48131393,5.63907407,3.09102554,7.8443494.60667822,2.20527533.67947961,4.16484599.21537077,5.87871197-.46107545,1.71993276-1.55916303,3.33066344-3.29729613,4.8443256-1.92013657,1.6713985-3.99497609,2.5935494-6.23058533,2.77251947-2.23257585.17290329-4.49548562-.33367302-6.79176269-1.51972894-2.29627707-1.18908931-4.51975275-3.02125754-6.67042704-5.4934713Z"/>
    <path class="cls-2" d="M620.92913749,197.72754651c-1.75633345-2.95452294-2.75431913-5.79377701-2.98789024-8.52382901-.23660451-2.72701861.37310711-5.30540105,1.82913484-7.71998037,1.45299434-2.41457932,3.75533819-4.65625535,6.90399816-6.71592791,1.50759538-.94338463,2.9666565-1.83216823,4.37111659-2.66938417,1.40749347-.84024934,2.88475494-1.69263224,4.4348178-2.56928227,3.27909579-1.76240023,6.3458542-2.67545096,9.19420845-2.75128573,2.84835425-.07280139,5.43887026.64611231,7.76851463,2.1506743,2.33267776,1.50759538,4.33471589,3.67040324,6.00611439,6.4823568,1.69566563,2.84835425,2.64815044,5.65727442,2.86048781,8.4237271.20930399,2.76948608-.39130745,5.39336939-1.80486771,7.8807501-1.41356026,2.4904141-3.68860359,4.73209013-6.8220966,6.73716165-1.48636164.97978533-2.9332892,1.88676927-4.34078267,2.72398521s-2.89688851,1.67746528-4.46515171,2.51468123c-3.29426274,1.81700127-6.35495437,2.77858625-9.18510827,2.88778833-2.82712051.1031353-5.38730261-.59757805-7.66841272-2.10517343-2.28717689-1.51062877-4.31651555-3.76140497-6.09408273-6.74626182ZM625.3578885,195.09456303c1.59253033,2.66938417,3.6855702,4.37718337,6.28821977,5.11126402,2.59961618.73711404,5.72704241.10920208,9.39137887-1.88070249,1.6046639-.86148307,3.02429093-1.65623154,4.25888111-2.39031219,1.23155679-.73104726,2.59051601-1.58949694,4.07991104-2.56928227,2.3539115-1.49546182,4.03441017-3.09709232,5.04452941-4.80185812,1.00708585-1.7047658,1.45906112-3.43986552,1.34682565-5.20529914-.11223547-1.77150041-.69161317-3.53996742-1.74723328-5.31146783-1.01315263-1.7047658-2.26897655-3.02429093-3.77050515-3.96767557-1.5015286-.94035124-3.2396617-1.37715956-5.2204661-1.30132479-1.977771.069768-4.19821329.76744795-6.65829348,2.08697308-1.55006286.87665003-2.93935598,1.67746528-4.17091277,2.41154593-1.23459018.73408065-2.62388331,1.58343016-4.16787938,2.54804853-3.49446656,2.26897655-5.53290538,4.72602335-6.11834986,7.38024056-.58847787,2.65118383-.10616869,5.28416731,1.44389417,7.88985027Z"/>
    <path class="cls-2" d="M641.08905479,236.07871028c-.15470295-.41254119-.15470295-.78261491.00606678-1.10112097.15773634-.32153946.42770815-.55207718.80688203-.69464656l37.08927307-14.02640048c.3761405-.14560277.73104726-.14863616,1.06472028-.01820035.33063963.1365026.57634431.41254119.73104726.82811577l1.13752167,3.00609059c.14256938.37917389.13346921.72498047-.02426713,1.04651993-.16076973.31850607-.42770815.54904379-.80688203.69464656l-33.4613373,12.65227431,7.14363606,18.88892642c.15470295.41254119.15470295.77958151-.00303339,1.10112097-.16076973.32153946-.44894188.56117735-.86451647.7158803l-2.26897655.85844968c-.37917389.14256938-.73408065.14863616-1.06472028.01516696-.33367302-.1365026-.57634431-.4095078-.73408065-.82508238l-8.75133334-23.14174076Z"/>
    <path class="cls-2" d="M658.7191239,297.42904543c-.59757805-3.33976361-.5126431-6.32765385.25480485-8.94547038.76138117-2.61781653,2.25380959-4.79579134,4.47121849-6.52179088,2.2174089-1.72903293,5.2538334-2.94238937,9.11534028-3.62793576l24.23679495-4.31348215c.43680832-.07886817.80688203-.02123374,1.10718775.16683651.30333911.19717042.49140936.5126431.57027753.94641803l.54297701,3.04855806c.07583478.43377493.00910017.80688203-.2032372,1.11325454-.21537077.30333911-.53691023.49444275-.97675194.57027753l-24.3550972,4.33774928c-3.89790757.69464656-6.62189279,2.12640717-8.16588886,4.29224842-1.54702946,2.16280786-2.03237204,4.83522542-1.4651279,8.02028609.55814396,3.1395598,1.93833692,5.47223756,4.14057886,6.98893311,2.19920855,1.51972894,5.24776662,1.92923674,9.14870758,1.23762357l24.3550972-4.34078267c.43680832-.07886817.80991543-.00910017,1.11325454.2032372.30333911.20930399.49444275.51567649.56421075.91608411l.55207718,3.1031591c.07280139.39434084,0,.7492476-.21233738,1.05562011-.21233738.30333911-.53691023.49444275-.97675194.57027753l-24.23376156,4.31954894c-3.86150688.68857978-7.13150249.60061144-9.80695345-.25480485-2.67848435-.85844968-4.82612525-2.37817863-6.4459561-4.55008666-1.61983085-2.17494142-2.730052-4.95656107-3.33066344-8.33575876Z"/>
    <path class="cls-2" d="M651.57245445,354.45073146c.0333673-1.13448827.23053772-2.13550734.59151127-3.00609059.35490676-.86754986.77654812-1.49849521,1.25885731-1.88676927.48534258-.38524067.88878359-.39737424,1.21335644-.0333673l.85541629.90091716c.32457285.36400693.39737424.68857978.21537077.97068515-.17897008.28513876-.4095078.6491457-.69161317,1.0920208-.27907198.44894188-.41557458,1.09505419-.41254119,1.9444037.00303339.68554639.20930399,1.2618907.61577839,1.72599954.40647441.46107545.95248481.69161317,1.64106459.68857978.64611231-.00303339,1.16178879-.2396379,1.54096268-.70374674.38524067-.47017562.57331092-1.04651993.56724414-1.73509971-.00303339-.60364483-.08493495-1.11022115-.24873807-1.51062877-.16380312-.40647441-.27907198-.76744795-.3397398-1.08898741-.06370121-.32457285.0667346-.65217909.38827406-.97371855l1.08595402-1.04045315c.2396379-.20020381.52477666-.25177146.84631612-.15470295.32457285.10010191.6491457.23053772.97371855.38827406l2.85745442,1.19818949c.38524067-2.95148955,1.29222461-5.41156974,2.71791843-7.38024056,1.42266043-1.97170422,3.273029-3.45806586,5.55413912-4.45908493,2.27504333-1.00405246,4.88982646-1.57129659,7.84131601-1.71083258,1.65623154-.05156765,3.43379873-.07583478,5.33573496-.09100173,1.89890283-.01213356,3.7189375,0,5.4570706.0333673,3.273029.10010191,6.14868377.77351473,8.62089753,2.0111383,2.47221375,1.24065696,4.4014505,3.07889197,5.79074362,5.51470503,1.38625974,2.44187984,2.09000647,5.52077182,2.11124021,9.23667592.01820035,2.79071982-.35490676,5.23866644-1.11022115,7.34383987-.75834778,2.10517343-1.77756719,3.86150688-3.06372502,5.25990018-1.28615783,1.40446008-2.72398521,2.47221375-4.31954894,3.20932779-1.59253033.73408065-3.23662831,1.14965523-4.93229394,1.24065696-.36400693.03943408-.66734604-.069768-.91305072-.33063963-.24267129-.26087164-.36704032-.57331092-.37007372-.93731785l-.01516696-3.33369683c-.00303339-.36400693.09706852-.67644622.29727233-.94338463.20020381-.26390503.56421075-.45197527,1.08898741-.5793777,3.14562658-.70678013,5.30236766-2.00203813,6.46415645-3.8888074,1.16482219-1.88373588,1.73509971-4.24068077,1.71993276-7.07083467-.01820035-3.23359492-.95248481-5.79681041-2.79981999-7.68357967-1.85036858-1.89283605-4.79579134-2.90598868-8.83930169-3.04552467-3.31549648-.1031353-6.71289452-.08493495-10.18612734.05763443-4.04351035.17897008-6.97679955,1.2285234-8.80290099,3.1395598-1.83216823,1.90800301-2.73611878,4.48031867-2.71791843,7.71391359.01516696,2.82712051.612745,5.18103201,1.79576754,7.05566772s3.35189717,3.14259319,6.50965732,3.81600601c.52477666.11526886.88878359.3063725,1.09505419.56724414.2032372.26087164.3063725.57331092.3063725.93731785l.01820035,3.33369683c.00303339.36704032-.11526886.67947961-.35794015.94338463-.2396379.26693842-.54297701.3761405-.90698394.3397398-1.69566563-.07583478-3.34583039-.46410884-4.9474609-1.18605592-1.6016305-.7158803-3.05462485-1.77150041-4.35291624-3.16079353-1.30132479-1.38625974-2.34481133-3.12742623-3.12135945-5.22349949-.77958151-2.09910665-1.17998914-4.54401988-1.19212271-7.33170631l-2.7967866-1.31952513c.16380312.2396379.28513876.57331092.36704032.99798567.08493495.42467476.12740243.82204899.13043582,1.18302253.00606678,1.37412617-.46107545,2.49648088-1.40749347,3.37009752-.94338463.87665003-2.16584125,1.31952513-3.66130307,1.32559191-1.45602773.00910017-2.72095182-.47017562-3.79780567-1.43479399-1.07382045-.96158498-1.59859711-2.39637897-1.5682632-4.29528181Z"/>
    <path class="cls-2" d="M659.4016369,410.58666729c.612745-3.37919769,1.72599954-6.17901769,3.33673022-8.39339319,1.61376407-2.21134212,3.76140497-3.7523048,6.44898949-4.62288805,2.68151774-.87058325,5.88781214-1.04955332,9.61584981-.53691023,1.75633345.27907198,3.44289891.56117735,5.05059619.85541629,1.61376407.29120555,3.28819596.61577839,5.03239585.97068515,3.63096916.82508238,6.54302462,2.14157412,8.74223317,3.95857539,2.19617516,1.81700127,3.67950341,4.05564391,4.44998475,6.72502808.77048134,2.66331739.86148307,5.60570677.27907198,8.83020151-.59151127,3.26089544-1.71689937,6.003081-3.37313091,8.22959007s-3.83117297,3.81297262-6.53089105,4.76242404c-2.69668469.94945142-5.88781214,1.15268862-9.57034894.60667822-1.76240023-.23660451-3.44896569-.50050953-5.06272976-.79171508-1.61073068-.29423894-3.28212918-.64004552-5.02026228-1.03438637-3.67647002-.78868169-6.615826-2.07180613-8.82110134-3.84937332-2.20527533-1.7745338-3.67343663-3.98284252-4.40751728-6.6188594-.73104726-2.64208365-.78868169-5.67244137-.1698699-9.09107315ZM664.47043344,411.5057848c-.55207718,3.06069163-.09100173,5.72400902,1.38929313,7.980852,1.47726147,2.26290977,4.25281433,3.84633992,8.32059181,4.74422369,1.77756719.40647441,3.37009752.73711404,4.78062439.99495228,1.41356026.25480485,3.0030572.50050953,4.76545743.73711404,2.75735252.41860797,5.07789671.31547268,6.9585992-.30940589,1.8776691-.62791196,3.35796396-1.64106459,4.4348178-3.04552467,1.07685384-1.41052686,1.79880093-3.12742623,2.16584125-5.15373149.35187337-1.95350387.2730052-3.77353854-.24267129-5.46617078-.5126431-1.69566563-1.54096268-3.16686032-3.08192536-4.41358406-1.54399607-1.24369035-3.67343663-2.17494142-6.39438845-2.79071982-1.74419989-.35794015-3.32156326-.66431265-4.73512352-.91911751-1.40749347-.25480485-3.01519076-.52781005-4.8109583-.80991543-4.12541191-.58241109-7.28013866-.069768-9.46418025,1.55006286-2.1840416,1.61376407-3.54300081,3.91610792-4.08597782,6.90096477ZM703.8832841,421.85268187c.17290329-.95248481.48837597-1.7381331.94945142-2.3539115s.90698394-1.1587554,1.34379226-1.6380312c.43680832-.47017562.70981352-1.02831959.82508238-1.66836511.08190156-.43377493,0-.78868169-.23660451-1.0586535-.2396379-.26997181-.49140936-.51870988-.75834778-.75228099s-.35794015-.57027753-.27907198-1.00405246l.34580659-1.9110364c.04853426-.27907198.19413703-.50354292.42770815-.66127926.23660451-.16380312.47017562-.22447094.70981352-.18200347.59757805.10920208,1.20425627.33063963,1.82003466.67037943.61577839.33367302,1.16178879.7856483,1.6380312,1.34379226.47320901.55814396.8190156,1.18605592,1.04348654,1.88373588.22143755.69767995.26087164,1.44692756.11830225,2.23864264-.18200347.99495228-.50050953,1.80183432-.96158498,2.41761271-.46107545.612745-.91305072,1.16785558-1.34985904,1.66533172-.43984171.49140936-.71284691,1.04045315-.8190156,1.6380312-.08796834.4762424,0,.84024934.26087164,1.09505419.26390503.24873807.52781005.49444275.79474847.72801387s.35794015.56724414.27907198,1.00405246l-.34580659,1.9110364c-.05763443.31547268-.2032372.54904379-.43377493.69161317s-.48534258.18807025-.76441456.13953599c-.55814396-.1031353-1.14358845-.33063963-1.75633345-.68857978s-1.15572201-.81598221-1.62893102-1.37715956c-.4762424-.55511057-.83418255-1.18605592-1.07685384-1.88676927s-.29120555-1.44996095-.14560277-2.24470942Z"/>
    <path class="cls-2" d="M649.51581528,452.70226943c.15470295-.41557458.40040763-.69161317.73104726-.82508238s.68554639-.13346921,1.06472028.01213356l37.08927307,13.85956397c.41557458.15166956.70071335.39130745.86451647.71284691.16076973.31850607.16380312.682513.00910017,1.10415436l-8.7665003,23.45418004c-.15470295.41860797-.40040763.69161317-.73104726.82811577s-.70678013.12436904-1.12235471-.03033391l-2.15674108-.80384864c-.41860797-.16076973-.69767995-.39130745-.83721595-.70374674-.14256938-.31243928-.1365026-.67947961.01820035-1.09808758l7.21947084-19.3075344-12.43993693-4.64412179-6.74929521,18.05777726c-.15470295.41557458-.40040763.69161317-.73104726.82811577-.33063963.13346921-.70678013.12740243-1.12235471-.03033391l-2.10214004-.78868169c-.3761405-.13953599-.6491457-.37007372-.80688203-.68857978-.16380312-.32153946-.16683651-.68554639-.00910017-1.10415436l6.74929521-18.06081065-12.89191221-4.82005847-7.38934074,19.76557645c-.15470295.41860797-.38827406.69464656-.70071335.83721595s-.67644622.1365026-1.0920208-.01820035l-2.21437551-.82811577c-.37917389-.14256938-.6491457-.37007372-.80991543-.69161317-.16076973-.31850607-.16380312-.68857978-.00606678-1.10112097l8.93333681-23.91525549Z"/>
    <path class="cls-2" d="M621.98475759,511.54702352c1.77756719-3.0364245,3.73107106-5.31146783,5.86051162-6.82816338,2.12640717-1.51972894,4.25584772-2.39031219,6.38225489-2.62084992,2.12640717-.23357112,4.04654374.1031353,5.76040971,1.01618602.27907198.16683651.46714223.42467476.56117735.7856483.09403512.35794015.04853426.69464656-.1365026,1.01315263l-1.55916303,2.66635078c-.24873807.41557458-.53387683.66734604-.86754986.75531439-.33063963.09100173-.65824587.08493495-.97675194-.01213356-.93731785-.31243928-2.02023848-.37007372-3.23662831-.1698699-1.21638983.19717042-2.46008019.76138117-3.72500428,1.68049867-1.26492409.9221509-2.46918036,2.36301167-3.61276881,4.31651555-1.75633345,3.00002381-2.51771462,5.51773842-2.27807672,7.55314386.23660451,2.03540543,1.24369035,3.57636812,3.02125754,4.61682127,1.22245662.7158803,2.42671289.91608411,3.6158022.60364483,1.18908931-.30940589,2.52984818-1.0586535,4.02227661-2.24774281,1.48939503-1.18605592,3.30032952-2.79981999,5.42673669-4.83219203,2.22347568-2.11730699,4.26191451-3.75837158,6.11531647-4.92319377,1.85036858-1.16178879,3.66433646-1.77756719,5.43280347-1.83823501,1.76846702-.069768,3.6491695.48534258,5.63907407,1.64713137,1.88373588,1.10112097,3.26999561,2.5935494,4.1618126,4.47425188.88878359,1.8776691,1.21335644,4.02531.97371855,6.43382254-.24267129,2.41457932-1.1587554,4.9808282-2.75128573,7.70178002-1.26492409,2.16280786-2.660284,3.88577401-4.18607973,5.17193184-1.52276234,1.28312444-3.08192536,2.18707499-4.6744557,2.70881826-1.59556372.51567649-3.1031591.73711404-4.52885292.6491457-1.42569382-.08493495-2.66938417-.41557458-3.73713784-.99191889-.24570468-.14560277-.43074154-.36704032-.55511057-.67341283-.12436904-.30940589-.07583478-.65521248.15166956-1.03741976l1.62286424-2.77251947c.14256938-.24570468.36097354-.45804206.65217909-.63701213.29423894-.18200347.67037943-.23053772,1.13752167-.14256938,1.55309625.62791196,3.22449475.52477666,5.02026228-.29423894,1.79273414-.82204899,3.342797-2.3539115,4.65018857-4.58648735,1.3286253-2.26594316,1.96867083-4.36201641,1.92316996-6.28518637s-.99191889-3.42469856-2.83925408-4.50761919c-1.18908931-.69464656-2.36604506-.94035124-3.53996742-.73711404-1.17392236.20020381-2.47524714.84631612-3.90700775,1.92923674-1.42872721,1.08292063-3.14865997,2.58141583-5.15979827,4.49548562-2.39941237,2.34481133-4.55008666,4.15271243-6.4459561,5.42977008-1.89586944,1.28009105-3.73107106,1.97473761-5.50257147,2.08393969-1.7745338.10920208-3.65523628-.41860797-5.64514085-1.58343016-2.19617516-1.28312444-3.73713784-2.95755633-4.61378787-5.01722889-.87968342-2.05967256-1.11932132-4.36808319-.72498047-6.92219851.39737424-2.5571487,1.41962704-5.24776662,3.07282519-8.07185374Z"/>
    <path class="cls-2" d="M572.74978653,575.90648264c.28817216-.28513876.61881179-.42467476.9888855-.41860797.37310711.00606678.69767995.15166956.98281872.43984171l24.92537473,25.49261887,8.3236252-8.14162173c.29120555-.28210537.61881179-.42467476.99191889-.41557458.37310711,0,.69767995.14560277.97978533.43984171l1.78060058,1.81700127c.30940589.31850607.46410884.66127926.46107545,1.03438637s-.14863616.69767995-.43984171.98281872l-20.89399795,20.4329225c-.31850607.31243928-.66431265.46410884-1.03741976.46107545-.37007372-.00606678-.70981352-.16380312-1.0222528-.48534258l-1.78060058-1.82003466c-.28210537-.28817216-.42164136-.61881179-.41557458-.99191889.00303339-.37007372.16380312-.70981352.48230919-1.0222528l8.27812433-8.09612087-24.92537473-25.48958547c-.28210537-.29120555-.42164136-.62184518-.41557458-.99191889.00303339-.3761405.16380312-.7158803.47927579-1.0222528l2.25684298-2.20527533Z"/>
    <path class="cls-2" d="M541.12971763,603.53764224c.36704032-.25177146.72498047-.3397398,1.07382045-.25783824.34883998.07886817.63701213.28817216.86451647.61881179l22.3773262,32.66052205c.25480485.37007372.35187337.73104726.30333911,1.08595402-.05460104.35187337-.26087164.65521248-.63094535.90698394l-12.20333242,8.36002589c-3.76747176,2.58141583-7.35900683,3.74320463-10.77157182,3.48233299-3.4095316-.25783824-6.30338672-2.12337378-8.68156535-5.59053981-1.75936684-2.56624888-2.54804853-5.09913045-2.37211185-7.59257794.17290329-2.50254766,1.14662184-4.82005847,2.91205546-6.9585992l-16.82015369-8.02938626c-.23660451-.13346921-.41254119-.28210537-.52477666-.44590849-.18200347-.26997181-.23357112-.5793777-.15470295-.92821768.07886817-.34580659.25177146-.60971161.51870988-.79474847l2.39941237-1.64409798c.56724414-.39130745,1.08898741-.52781005,1.55916303-.40647441.4762424.11830225.91305072.25783824,1.31952513.41860797l15.95563722,7.73818071,8.75436674-5.99701422-8.83930169-12.90707916c-.23053772-.33063963-.30940589-.682513-.24267129-1.04348654.0667346-.37007372.28817216-.67341283.65217909-.92821768l2.55108192-1.74723328ZM549.92048506,624.41647323l-8.25082381,5.65424102c-2.50254766,1.71386598-4.01014304,3.51570029-4.52581953,5.41156974-.5126431,1.89586944-.06066782,3.87970723,1.35289243,5.94544657,1.39535991,2.03237204,3.06675841,3.16686032,5.0141955,3.40346482,1.94743709.23053772,4.18911312-.52174327,6.72502808-2.25987637l8.2538572-5.65424102-8.56932988-12.50060475Z"/>
    <path class="cls-2" d="M493.25067239,632.70976452c.39737424-.19717042.76441456-.23053772,1.09808758-.10010191.33063963.13043582.58847787.37310711.76744795.74014743l17.44503226,35.60594482c.17897008.36400693.21537077.71891369.11526886,1.06168689-.1031353.3427732-.35187337.60971161-.75531439.80384864l-2.88475494,1.41659365c-.36097354.17897008-.71891369.2062706-1.07078706.08796834-.35187337-.12133564-.61881179-.36400693-.79474847-.72498047l-17.44806565-35.6120116c-.17593668-.36400693-.2032372-.71891369-.08493495-1.06775367.12133564-.35490676.36097354-.61881179.72498047-.80081525l2.88778833-1.41052686Z"/>
    <path class="cls-2" d="M463.01079644,646.06578556c.42164136-.1365026.78868169-.11526886,1.10112097.06066782.30940589.17897008.52781005.45804206.6491457.84631612l12.06076304,37.70808485c.13346921.42164136.12436904.79778186-.02426713,1.11932132-.15166956.32760624-.43984171.55814396-.86148307.69161317l-15.82520141,5.05969637c-2.88778833.9221509-5.39640278,1.20728966-7.52887673.84631612-2.12944056-.35794015-3.88577401-1.20728966-5.26900035-2.54501514-1.38322634-1.34379226-2.39637897-3.01519076-3.0364245-5.01722889-.50354292-1.57736338-.67947961-3.01519076-.52174327-4.31954894.15470295-1.30132479.50657631-2.43277967,1.04955332-3.38829787.54297701-.96158498,1.11628793-1.75026667,1.72599954-2.36604506-1.73509971-.25177146-3.45503247-1.01921941-5.15979827-2.29931046-1.70173241-1.28009105-2.93025581-3.09405893-3.6825368-5.44493704-.67644622-2.11730699-.81598221-4.21338025-.42164136-6.29428655.39737424-2.07787291,1.38019295-3.95250861,2.94542277-5.62087372,1.5682632-1.66533172,3.75837158-2.94845616,6.56729175-3.84937332l16.23167582-5.18709879ZM460.17457576,652.12953438l-11.14771232,3.56423455c-2.50254766.79778186-4.21034686,2.08697308-5.12946436,3.86757366-.91608411,1.77756719-1.06168689,3.6491695-.43377493,5.61177355.65217909,2.04147222,1.86553553,3.50660012,3.64006933,4.40751728,1.77150041.90091716,3.90700775.94641803,6.40955541.14560277l11.14771232-3.56423455-4.48638545-14.03246726ZM466.13822267,670.78488969l-10.62596905,3.39436465c-2.46614697.78868169-4.15271243,1.95350387-5.05666298,3.49749995-.91001733,1.54096268-1.04955332,3.29122935-.42164136,5.25686679.62791196,1.96260405,1.74419989,3.26089544,3.34583039,3.89790757,1.6016305.63094535,3.63703594.55207718,6.10318291-.23660451l10.62596905-3.39436465-3.97070896-12.4156698Z"/>
    <path class="cls-2" d="M393.89194667,661.99108887c3.36706413-.42164136,6.33978741-.19110364,8.92120325.70981352,2.57838244.89485038,4.6744557,2.4904141,6.28821977,4.79579134,1.61679746,2.29931046,2.66938417,5.39336939,3.16079353,9.28824357l3.09102554,24.4218318c.05460104.43984171-.02123374.80384864-.23053772,1.09808758-.2062706.29120555-.52781005.46410884-.97068515.52174327l-3.06675841.38524067c-.4428751.05460104-.80991543-.03033391-1.10415436-.25480485-.29423894-.23053772-.47017562-.56421075-.52477666-1.00708585l-3.1031591-24.54013406c-.49747614-3.93127488-1.78666736-6.72199469-3.87060705-8.37215946-2.08393969-1.65623154-4.72905674-2.27504333-7.93838453-1.86856892-3.16686032.39737424-5.56323929,1.65926494-7.18913692,3.77960532-1.62893102,2.12034038-2.19314177,5.14766471-1.69566563,9.07590619l3.1031591,24.54316745c.05763443.43984171-.02730052.80991543-.25480485,1.10112097-.23053772.29423894-.54297701.46714223-.94338463.51870988l-3.13045962.39434084c-.40040763.05156765-.74621421-.03943408-1.04045315-.26390503-.29423894-.23053772-.46714223-.56117735-.52477666-1.00405246l-3.08799215-24.4218318c-.49444275-3.89184079-.24267129-7.15273623.7492476-9.78571971.9888855-2.6269167,2.61174974-4.69872283,4.86555934-6.20328481,2.25684298-1.50759538,5.08699689-2.47828053,8.49652849-2.91205546Z"/>
    <path class="cls-2" d="M340.78333517,664.71507409c.40344102.02123374.73104726.1698699.97978533.44590849s.36097354.61577839.3397398,1.01921941l-1.85036858,35.60291143,11.62395472.60667822c.40344102.01820035.73104726.1698699.97978533.44590849.24866121.27603859.36097354.61577839.3427732,1.01921941l-.13346921,2.54198175c-.02123374.4428751-.17290329.79171508-.44894188,1.04045315s-.61577839.36097354-1.01921941.3397398l-29.18728923-1.51972894c-.4428751-.01820035-.78868169-.1698699-1.03741976-.44590849s-.36400693-.63701213-.3397398-1.07988723l.13346921-2.54501514c.01820035-.40344102.1698699-.72801387.44590849-.97675194s.63397874-.36097354,1.07988723-.3397398l11.5632869.60061144,1.85340197-35.60594482c.02123374-.40040763.1698699-.72498047.44590849-.97371855.27603859-.25177146.63397874-.36400693,1.07685384-.3427732l3.15169336.16683651Z"/>
    <path class="cls-2" d="M281.98711533,702.85086709c.63094535.13953599.87968342.52174327.74318082,1.15572201-.069768.31243928-.22447094.55207718-.46410884.70374674l-5.60267338,4.36808319c-.44894188.36097354-.82515729.57634431-1.13448827.65521248-.3063725.07886817-.73408065.05763443-1.28919122-.06066782l-4.38325015-.95248481c-.7492476-.16380312-1.04348654-.62184518-.88271681-1.36805939.06066782-.27907198.21233738-.49444275.45197527-.6491457l8.09308747-4.14057886c.37917389-.2062706.71284691-.32153946,1.00405246-.3397398.29727233-.01516696.65824587.01820035,1.0920208.11526886l2.37211185.5126431ZM307.50703472,661.85458627c.31547268.0667346.56724414.24873807.75228099.53691023s.24570468.58847787.17593668.90395055c-.04246748.19717042-.10920208.41254119-.20020381.63701213l-23.01130494,35.15396954c-.24267129.36097354-.53084344.63094535-.85844968.80384864-.32760624.18200347-.76744795.2062706-1.32255852.08796834l-4.02834339-.87361664c-.5126431-.10920208-.89181699-.31547268-1.13752167-.61881179s-.40344102-.66734604-.4762424-1.09808758l-6.31855368-41.50892391c-.02730052-.25783824-.02123374-.48230919.02123374-.67947961.069768-.31547268.24873807-.56724414.53691023-.75228099s.59151127-.24570468.90698394-.17290329l3.02125754.65217909c.47320901.1031353.79474847.29727233.95855159.58241109.16683651.28210537.26693842.53084344.30333911.74621421l1.43479399,9.12444045,19.43493682,4.21641364,5.0839635-7.71088019c.08493495-.19110364.26693842-.3761405.55814396-.55814396.28817216-.18807025.66734604-.23053772,1.14358845-.13043582l3.02125754.65824587ZM294.87902754,674.31575694l-16.00113809-3.47019943,3.43683212,22.77166704,12.56430597-19.30146762Z"/>
    <path class="cls-2" d="M248.66228063,646.30542346c.4095078.17593668.67644622.42467476.79778186.76441456.12436904.33063963.10616869.68554639-.05156765,1.06168689l-15.25795727,36.5341625c-.1698699.4095078-.42164136.68554639-.74621421.83721595-.32457285.14863616-.69161317.13953599-1.10112097-.0333673l-13.65329337-5.70277528c-4.21338025-1.75936684-7.14060267-4.14361225-8.77560047-7.14970284-1.63499781-3.0030572-1.64409798-6.44898949-.02426713-10.32566333,1.20122288-2.86958799,2.89688851-4.91409359,5.08699689-6.12441665,2.19314177-1.20728966,4.66838891-1.65319815,7.42574143-1.3316587l-2.39941237-18.48245202c-.02123374-.26693842.00910017-.49747614.08796834-.68554639.12740243-.29727233.35490676-.50657631.69161317-.63094535.33670641-.12133564.65217909-.12133564.95248481.00606678l2.68455113,1.11932132c.63397874.26693842,1.03135298.62791196,1.18908931,1.08898741s.27603859.90395055.36097354,1.33469209l2.17494142,17.59670181,9.79178649,4.0920446,6.03038152-14.43590828c.15773634-.37310711.40647441-.63094535.7492476-.77048134.34580659-.13953599.72194708-.12740243,1.13145488.04550087l2.85442103,1.19212271ZM235.91293781,665.03054676l-9.23364253-3.8554401c-2.7967866-1.17088897-5.12946436-1.45299434-7.00106668-.85541629s-3.28819596,2.05360578-4.25584772,4.3650498c-.95248481,2.27504333-.99495228,4.29224842-.13346921,6.05768204.86451647,1.75936684,2.71488504,3.23359492,5.54807234,4.41661745l9.23060914,3.8554401,5.84534466-13.983933Z"/>
    <path class="cls-2" d="M198.08351731,621.95942643c.37917389.23053772.60667822.51870988.67947961.86754986s.00606678.69767995-.20020381,1.04348654l-20.3631545,34.02858144c-.20634304.34580659-.48230919.57027753-.82811577.67037943-.3397398.10010191-.70374674.03640069-1.08595402-.19110364l-2.75735252-1.65016476c-.34580659-.2062706-.56421075-.48837597-.65521248-.8523829-.09100173-.36097354-.0333673-.71284691.17593668-1.0586535l20.3631545-34.02554805c.2062706-.34580659.49140936-.56724414.84934951-.65824587.36400693-.08796834.7158803-.03033391,1.06472028.17593668l2.75735252,1.65016476Z"/>
    <path class="cls-2" d="M173.65561872,606.54979961c.25177146.2062706.39130745.47927579.42770815.8190156s-.05156765.63701213-.25480485.88878359c-.12740243.15470295-.28210537.31547268-.47017562.4762424l-36.44922754,20.89399795c-.37917389.20930399-.75531439.32153946-1.12842149.32760624-.37310711.01213356-.77654812-.16380312-1.21638983-.51870988l-3.19416084-2.60568296c-.4095078-.33367302-.65217909-.68857978-.73408065-1.07078706-.08190156-.37917389-.05763443-.77654812.07280139-1.19212271l13.19221793-39.86482593c.09100173-.2396379.20020381-.43984171.32760624-.59454466.2062706-.24570468.4762424-.39130745.8190156-.42467476.3397398-.03640069.63701213.05156765.88878359.25177146l2.39637897,1.95653726c.37310711.3063725.57331092.62184518.59151127.95248481.01820035.32760624-.00303339.59454466-.069768.80384864l-2.85745442,8.78166726,15.40962682,12.57037275,8.02635287-4.56525362c.16076973-.13043582.4095078-.21233738.75228099-.24873807.33670641-.0333673.69767995.1031353,1.07382045.4095078l2.39637897,1.95350387ZM156.74749669,611.92800204l-12.68260822-10.34993046-7.2649717,21.85558293,19.94757992-11.50565247Z"/>
    <path class="cls-2" d="M121.09301761,556.68691658c2.29021029,2.66331739,3.80993923,5.25080001,4.55312005,7.75638106.74318082,2.50861445.87665003,4.80489151.40344102,6.8888312-.47017562,2.08697308-1.41659365,3.79477228-2.83622069,5.12036419-.24267129.20930399-.55207718.29727233-.9221509.2730052s-.67644622-.17897008-.91001733-.45500867l-2.02023848-2.34481133c-.31547268-.36704032-.45804206-.72498047-.43377493-1.06472028.02730052-.3427732.1365026-.6491457.32760624-.9221509.60667822-.7856483,1.01011924-1.78666736,1.21638983-3.0030572s.07886817-2.57231566-.38220728-4.07384426c-.45804206-1.49242842-1.42872721-3.10012571-2.90295529-4.81399169-2.26594316-2.63905026-4.4014505-4.17394616-6.40348863-4.61075448-2.00203813-.4428751-3.7856721.01213356-5.34786852,1.35895922-1.07078706.9221509-1.65623154,1.99597135-1.74723328,3.21842796-.09403512,1.2285234.17897008,2.73915217.8190156,4.53491971s1.57432998,4.02834339,2.80285338,6.70379435c1.28312444,2.79375321,2.17190803,5.25080001,2.66938417,7.38327396.50050953,2.12944056.49140936,4.04351035-.02426713,5.73917597-.5126431,1.69263224-1.64409798,3.29122935-3.39133126,4.79579134-1.65623154,1.41962704-3.51570029,2.24774281-5.58447303,2.48131393-2.06573934.23053772-4.20124668-.16380312-6.40348863-1.17392236-2.20224194-1.00708585-4.33175273-2.71185165-6.38832167-5.10216384-1.63196442-1.89890283-2.80892017-3.77960532-3.52783386-5.63907407-.72194708-1.85946875-1.06775367-3.62793576-1.04045315-5.30236766.02419707-1.67746528.30940589-3.1729271.8523829-4.49245223.5460104-1.32255852,1.2618907-2.39637897,2.15674108-3.21539457.21537077-.18503686.48534258-.28817216.81598221-.30333911.33367302-.01820035.64307891.14256938.93428446.47927579l2.09303986,2.43277967c.18503686.22143755.31547268.49444275.38827406.82811577.07886817.33670641,0,.70981352-.23053772,1.11932132-1.10112097,1.26795748-1.55013305,2.88172155-1.35592582,4.84735899.19406683,1.95957066,1.13752167,3.92520809,2.82408712,5.88477875,1.71083258,1.99597135,3.48536638,3.28212918,5.31753461,3.86150688,1.83520162.58544448,3.56423455.17897008,5.19013218-1.22245662,1.04045315-.89181699,1.65623154-1.92923674,1.84430179-3.1031591.19110364-1.17392236.00606678-2.61478313-.55511057-4.32258233-.55814396-1.7047658-1.41659365-3.81600601-2.57534905-6.33978741-1.4317606-3.03339111-2.44491323-5.65424102-3.03945789-7.86254975-.59151127-2.20830873-.65217909-4.17091277-.18200347-5.88477875.4762424-1.71083258,1.58646355-3.31852987,3.33066344-4.82005847,1.93227014-1.65926494,4.01317643-2.56928227,6.24878568-2.73308539,2.23257585-.16380312,4.49548562.36400693,6.78266252,1.56522981,2.28717689,1.20425627,4.5015524,3.04855806,6.63402635,5.53290538Z"/>
  </g>
  <path class="cls-2" d="M530.81875133,78.22267138c-.4046541-1.24533746-.35115917-2.36198771.15387822-3.34780403.50396403-.98911961,1.37365986-1.68439643,2.61569404-2.08797717l7.08884401-2.30341563c1.24203418-.40358074,2.38734061-.36304928,3.44252587.1194477,1.04750534.4813404,1.77358505,1.34467932,2.17823915,2.59001679l2.30234227,7.08554073c.40358074,1.24203418.33331973,2.39700079-.20863632,3.4715064-.55070933,1.07004575-1.44270444,1.80908893-2.68473862,2.21266967l-7.08884401,2.30341563c-1.24203418.40358074-2.36504132.31928292-3.37348128-.24414019-1.01058667-.57002968-1.7199003-1.47168498-2.12348105-2.71371915l-2.30234227-7.08554073Z"/>
  <path class="cls-2" d="M26.49670458,478.70643255c-.4046541-1.24533746-.35115917-2.36198771.15387822-3.34780403.50396403-.98911961,1.37365986-1.68439643,2.61569404-2.08797717l7.08884401-2.30341563c1.24203418-.40358074,2.38734061-.36304928,3.44252587.1194477,1.04750534.4813404,1.77358505,1.34467932,2.17823915,2.59001679l2.30234227,7.08554073c.40358074,1.24203418.33331973,2.39700079-.20863632,3.4715064-.55070933,1.07004575-1.44270444,1.80908893-2.68473862,2.21266967l-7.08884401,2.30341563c-1.24203418.40358074-2.36504132.31928292-3.37348128-.24414019-1.01058667-.57002968-1.7199003-1.47168498-2.12348105-2.71371915l-2.30234227-7.08554073Z"/>
</svg>