<svg version="1.1" id="Layer_1" xmlns="http://www.w3.org/2000/svg" xmlns:xlink="http://www.w3.org/1999/xlink" x="0px" y="0px"
	 width="100%" viewBox="0 0 848 768" enable-background="new 0 0 848 768" xml:space="preserve">
<path fill="#000000" opacity="1.000000" stroke="none" 
	d="
M849.000000,282.000000 
	C849.000000,444.666595 849.000000,606.833191 849.000000,768.999817 
	C566.333557,768.999878 283.667084,768.999878 1.000477,768.999939 
	C1.000318,513.000305 1.000318,257.000671 1.000159,1.000752 
	C283.666199,1.000501 566.332397,1.000501 848.999268,1.000251 
	C849.000000,94.500000 849.000000,188.000000 849.000000,282.000000 
M357.889954,70.324234 
	C350.694794,63.817963 343.513763,57.295921 336.296173,50.814602 
	C333.987976,48.741837 331.707092,46.595184 329.159576,44.854240 
	C328.173584,44.180416 326.341278,44.154369 325.174194,44.587250 
	C324.597412,44.801193 324.230530,46.834812 324.490692,47.862255 
	C328.033325,61.853111 331.702606,75.811905 335.372742,89.901794 
	C339.608490,90.346382 340.526550,88.843964 339.447052,84.766266 
	C337.020966,75.602089 335.066528,66.313034 333.269012,56.664413 
	C333.372498,56.517700 333.476013,56.370987 334.104736,56.668831 
	C337.296082,59.505848 340.540466,62.285759 343.667267,65.192215 
	C349.477875,70.593353 355.098938,76.207664 361.085846,81.402542 
	C362.384827,82.529671 364.894012,82.262062 366.845795,82.636848 
	C366.898102,81.211685 367.274506,79.708397 366.952728,78.373405 
	C363.641571,64.637115 360.217407,50.928055 356.800995,37.115295 
	C352.459778,36.662502 351.448486,38.090012 352.539886,42.210697 
	C354.969208,51.382828 356.928833,60.679363 358.730988,70.335594 
	C358.627502,70.482300 358.523987,70.629013 357.889954,70.324234 
M127.826233,241.000549 
	C133.987686,243.676971 140.294815,246.071365 146.249832,249.147430 
	C149.278381,250.711823 151.011490,249.508774 151.722931,247.329758 
	C152.531372,244.853622 155.163620,241.673859 150.323318,239.656113 
	C137.347580,234.246994 124.498543,228.533920 111.476898,222.888550 
	C108.533249,227.203171 106.056549,230.847641 110.846519,235.828888 
	C115.707634,240.884048 119.565933,246.903534 123.876183,252.517319 
	C115.511925,253.370178 107.588898,254.569702 99.633530,254.849457 
	C94.458755,255.031433 95.282646,259.142212 94.272087,261.796539 
	C94.000793,262.509094 96.791756,264.985535 98.567268,265.779846 
	C108.208862,270.093231 117.941826,274.208038 127.703094,278.246765 
	C137.656830,282.365173 135.671494,283.070251 140.242294,273.062347 
	C131.923798,269.295105 123.594040,265.522766 114.798027,261.539276 
	C121.043556,260.982056 126.574417,260.692291 132.039246,259.929565 
	C135.692932,259.419617 137.204025,255.447739 135.040253,252.619446 
	C132.172928,248.871567 129.157013,245.237366 126.654564,241.257614 
	C126.793892,241.144333 126.933212,241.031052 127.826233,241.000549 
M126.000000,318.636688 
	C127.096619,311.751770 121.823845,305.287506 114.695946,303.018677 
	C112.725304,302.391388 110.749542,301.589539 108.721680,301.369446 
	C103.197021,300.769836 97.536377,299.553040 92.125885,300.206329 
	C83.834373,301.207489 80.419754,307.852509 78.300865,315.170319 
	C75.807213,323.782379 80.548218,335.499207 88.274605,337.549438 
	C95.420670,339.445648 102.916298,340.342651 110.315788,340.872986 
	C117.211311,341.367126 121.908844,337.677155 123.951050,330.896088 
	C125.051384,327.242493 125.343315,323.345398 126.000000,318.636688 
M100.986435,376.521423 
	C98.785522,378.309418 96.584618,380.097412 94.551003,381.749512 
	C88.500443,376.127991 82.783882,370.630096 76.788605,365.455078 
	C75.925148,364.709778 72.338326,365.498016 72.336624,365.611359 
	C72.284805,369.074310 70.738968,372.761597 74.151962,375.752045 
	C78.659492,379.701599 82.898491,383.957581 88.222321,389.000000 
	C83.552956,389.000000 80.716553,389.170502 77.909012,388.958527 
	C74.046310,388.666901 71.790634,389.150970 71.811607,394.129700 
	C71.831848,398.933899 74.089378,399.102356 77.665268,399.045746 
	C86.485756,398.906128 95.309937,399.000000 104.132637,399.000000 
	C109.062325,399.000000 113.992012,399.000000 118.999977,399.000000 
	C118.999977,397.375275 118.867477,396.360840 119.022278,395.392365 
	C119.807137,390.481964 118.105759,388.264191 112.844025,388.927277 
	C109.699112,389.323608 106.463470,389.000000 102.273071,389.000000 
	C106.097000,385.424469 108.755692,382.392181 111.936226,380.076691 
	C118.855209,375.039612 120.273148,371.741364 117.998505,361.809418 
	C112.193535,366.801422 106.841835,371.403625 100.986435,376.521423 
M527.227173,677.917786 
	C523.656067,679.007568 519.787354,679.566895 516.605957,681.351440 
	C513.961853,682.834717 511.273438,685.391113 510.098846,688.116211 
	C507.102112,695.068542 508.958069,698.926453 517.075256,705.241150 
	C516.895569,705.788757 516.679138,706.389160 516.500916,707.000732 
	C513.859558,716.063354 519.361938,725.014526 530.471252,721.993469 
	C535.959473,720.501099 541.319946,718.521484 546.835266,717.153137 
	C550.022644,716.362427 550.237854,715.248169 549.203857,712.291565 
	C545.927734,702.923645 543.099304,693.400024 540.041565,683.954712 
	C537.024231,674.634216 536.994202,674.643921 527.227173,677.917786 
M165.514175,180.993683 
	C165.007675,180.189056 164.255875,179.446152 164.035248,178.569565 
	C162.780258,173.582855 159.721008,170.117630 154.780838,169.117813 
	C149.671783,168.083847 144.945389,169.701736 141.664993,173.919586 
	C138.412079,178.102051 135.768982,182.764435 132.452789,186.890289 
	C129.791458,190.201401 131.021057,191.985062 133.903534,194.022781 
	C142.985550,200.443100 151.764206,207.316193 161.063217,213.397934 
	C167.704758,217.741623 167.182419,219.815521 173.040466,211.475891 
	C174.062302,210.021194 175.182983,208.635300 176.272598,207.228928 
	C179.906342,202.538818 182.770569,197.784531 182.122437,191.289673 
	C181.407288,184.123322 173.345703,178.479034 165.514175,180.993683 
M281.039032,693.143494 
	C280.588379,698.566650 280.427856,704.249878 285.908783,707.210388 
	C292.417328,710.725952 299.386566,713.388672 306.440399,716.548218 
	C312.144348,702.843811 317.570190,689.807495 322.980652,676.808228 
	C318.038055,672.614563 316.324371,672.978088 314.159821,678.582214 
	C312.830811,682.023071 311.513184,685.468201 310.384949,688.405151 
	C303.817841,687.727173 300.316223,684.715332 300.000916,678.532593 
	C299.842926,675.434387 299.319733,672.356018 299.007721,669.264038 
	C298.559296,664.819580 297.136230,663.840210 291.881927,664.742126 
	C292.633698,670.979675 293.388977,677.246460 294.177979,683.792969 
	C287.617706,683.896484 283.376312,686.636414 281.039032,693.143494 
M612.435852,640.949951 
	C614.351746,643.715515 616.267700,646.481079 618.158325,649.210205 
	C610.505737,655.309448 611.864990,655.828735 603.957947,651.984314 
	C601.605408,650.840454 599.187439,649.788452 596.969971,648.418396 
	C592.706360,645.784119 589.971375,647.145020 587.854858,651.539795 
	C593.638245,654.411072 599.258484,657.201355 604.888000,659.996277 
	C602.161926,665.216003 602.036987,670.069214 605.058960,674.384033 
	C608.046570,678.649719 611.898987,681.475952 617.882690,680.091064 
	C626.527466,678.090210 632.268494,671.825500 639.504517,667.428162 
	C630.917053,654.979248 622.819946,643.241211 614.881836,631.733704 
	C609.418213,633.983704 608.895874,636.771606 612.435852,640.949951 
M696.975098,205.496078 
	C691.230957,208.476212 689.742493,213.465118 689.959290,219.534790 
	C690.427917,232.655807 702.759399,240.637558 714.540771,235.024124 
	C719.078125,232.862228 723.251648,229.903915 727.486938,227.148651 
	C734.071106,222.865341 735.965210,214.616119 732.309265,206.779114 
	C728.437134,198.478867 721.217590,194.097534 713.939148,196.713440 
	C708.212524,198.771637 702.971375,202.180710 696.975098,205.496078 
M774.452332,382.956818 
	C774.414734,388.354736 772.943787,392.629028 767.137512,394.699249 
	C765.962708,395.118103 765.798340,398.370758 765.168091,400.316956 
	C766.679749,400.576447 768.276855,401.287292 769.688904,401.020233 
	C777.319763,399.577087 779.778503,393.373779 780.789429,387.018707 
	C782.481934,376.379425 776.153015,367.023804 764.666199,367.000977 
	C761.500305,366.994659 758.331116,367.093018 755.169067,366.982452 
	C745.907349,366.658630 738.719421,369.462799 736.344238,379.362915 
	C733.704590,379.532349 730.161621,377.284943 730.090271,382.239044 
	C730.074097,383.361908 729.931274,384.487762 729.727844,385.590302 
	C729.716492,385.652100 728.617798,385.513275 728.025269,385.467804 
	C728.253113,384.192596 728.493408,382.919434 728.702087,381.641083 
	C728.775146,381.193420 728.770264,380.733093 728.927979,378.398254 
	C726.592346,379.811157 724.815674,380.320129 723.992798,381.496368 
	C722.009277,384.332092 722.921265,387.167450 725.536072,389.048706 
	C728.896362,391.466278 732.518188,390.096832 735.761108,385.605347 
	C736.898682,397.232544 744.826904,403.408844 751.934998,401.203186 
	C751.748901,398.501221 753.253052,395.397675 749.016357,393.980042 
	C744.020020,392.308197 741.256714,387.589081 742.048279,383.151245 
	C742.930359,378.205902 747.036621,374.342560 752.187195,374.052124 
	C756.339661,373.817963 760.524536,373.834229 764.679321,374.046753 
	C769.942566,374.316040 773.296326,377.401459 774.452332,382.956818 
M775.000000,443.609436 
	C775.844421,436.529541 771.397705,430.671783 764.476379,429.081604 
	C758.459900,427.699341 752.318298,426.597504 746.173462,426.109802 
	C739.613281,425.589111 734.634460,428.860413 732.539551,435.105347 
	C730.268677,441.874786 729.141724,448.774597 734.479553,455.058380 
	C738.851013,460.204651 745.137939,460.512665 750.900391,461.807739 
	C766.119995,465.228210 774.995178,458.682465 775.000000,443.609436 
M687.797180,148.328369 
	C682.365417,145.870483 677.521423,146.780609 673.442078,151.078995 
	C669.369446,155.370331 670.783142,160.238464 672.488708,164.929565 
	C673.986938,169.050568 676.131653,172.953598 677.399170,177.132385 
	C677.849060,178.615524 677.064880,181.181580 675.912964,182.239120 
	C674.801575,183.259491 672.214294,183.692993 670.752808,183.134705 
	C664.429016,180.719116 661.856140,175.066910 662.727966,168.296265 
	C662.951477,166.560257 661.082581,164.554840 660.174988,162.673187 
	C658.818665,163.684052 657.107788,164.453735 656.208679,165.775635 
	C655.361206,167.021576 655.103943,168.839386 655.045654,170.422516 
	C654.781433,177.596237 661.186035,187.440170 668.188477,189.454041 
	C672.692505,190.749374 677.587402,191.114044 681.561829,187.016403 
	C685.084534,183.384583 685.731750,179.417877 683.921448,174.920532 
	C682.160156,170.545227 680.228882,166.238739 678.418945,161.882614 
	C677.223816,159.006317 677.957092,156.191055 680.648865,155.142609 
	C682.487732,154.426361 685.703491,154.716888 687.113708,155.934937 
	C690.435364,158.803955 693.229126,162.245743 691.402527,167.527496 
	C690.933350,168.884216 692.805969,171.050812 693.602722,172.845337 
	C695.058960,171.816635 697.211731,171.106796 697.853333,169.705170 
	C700.978760,162.878311 696.850098,154.112076 687.797180,148.328369 
M716.202209,571.667114 
	C726.068726,573.804016 733.241089,566.195068 734.920776,557.356689 
	C736.149536,550.891113 733.703552,545.288147 729.329468,543.155212 
	C724.644104,540.870483 719.788879,542.111206 714.700562,546.780457 
	C711.912964,549.338501 709.229004,552.096924 706.098633,554.158081 
	C704.469299,555.230835 701.472534,555.896057 700.004761,555.088623 
	C698.448669,554.232666 697.012207,551.317444 697.194824,549.466614 
	C697.920532,542.113281 703.743225,537.739685 711.816956,538.578918 
	C712.037415,536.513367 713.130005,533.113892 712.309326,532.562622 
	C710.522156,531.362000 707.593933,530.894775 705.425598,531.396362 
	C696.771545,533.398499 691.128235,542.109070 690.929138,552.273193 
	C690.836731,556.994019 692.408203,560.236328 696.848633,561.963745 
	C701.067810,563.605164 705.116516,563.831665 708.841492,560.682617 
	C712.847473,557.295959 716.716797,553.698669 721.025146,550.746826 
	C722.416321,549.793701 725.706238,549.790039 726.865845,550.800354 
	C728.195251,551.958679 729.065857,555.059998 728.476440,556.732300 
	C726.857483,561.325745 724.178955,565.122925 718.263550,565.095276 
	C714.584656,565.078064 713.403442,568.158813 716.202209,571.667114 
M173.488876,600.987915 
	C174.442078,603.585388 175.541580,606.140320 176.311371,608.791077 
	C177.269394,612.089905 174.420334,615.295654 170.997437,614.993530 
	C166.343964,614.582764 161.564651,606.832886 163.025238,602.476868 
	C163.519836,601.001770 163.537033,598.964478 162.869247,597.639282 
	C162.402954,596.714050 159.799927,595.772400 159.204254,596.224731 
	C157.805710,597.286682 156.443634,599.067139 156.121292,600.757874 
	C154.839310,607.482483 157.285004,613.392944 162.290771,617.564697 
	C167.886322,622.227844 173.600998,624.095337 179.611664,619.296509 
	C183.606384,616.107239 183.941498,609.380554 181.524551,603.044739 
	C180.190735,599.548279 178.543121,596.164429 177.342148,592.626282 
	C176.179245,589.200134 178.526245,585.413086 181.687439,585.112366 
	C186.317154,584.671936 194.581223,594.677124 192.432953,598.784485 
	C190.196793,603.059814 191.705612,605.057068 196.316177,607.727539 
	C197.305176,604.721924 198.575623,602.201782 198.920242,599.560913 
	C199.931992,591.807251 195.604187,586.378784 190.161362,581.775269 
	C185.831390,578.113037 178.888260,577.952026 174.555939,580.965271 
	C169.977890,584.149414 168.904602,588.312134 171.044495,594.815674 
	C171.654602,596.669922 172.390442,598.482788 173.488876,600.987915 
M718.668457,507.794464 
	C720.896240,501.620667 723.124023,495.446869 725.392761,489.159698 
	C729.515869,490.733154 733.251770,492.158844 736.970703,493.578033 
	C735.205261,498.692902 733.648071,503.483246 731.883667,508.196045 
	C731.029480,510.477509 729.854248,513.102478 733.123474,513.681885 
	C734.474243,513.921265 737.037109,511.714508 737.797119,510.049164 
	C739.861633,505.525330 741.257324,500.696259 743.052185,495.608276 
	C746.006104,496.882416 748.286133,498.406006 750.747009,498.799866 
	C754.376831,499.380737 753.976746,501.091949 753.015137,503.586578 
	C750.915527,509.033478 748.929077,514.524048 746.690796,520.550476 
	C749.382080,521.172607 752.077576,524.215576 753.840454,520.013184 
	C756.794739,512.970520 759.296570,505.725311 761.638916,498.452698 
	C761.980042,497.393402 760.717529,494.869446 759.639587,494.447632 
	C748.584534,490.121521 737.341431,486.272644 726.317200,481.873566 
	C722.597900,480.389435 721.189575,481.714844 720.067932,484.792755 
	C717.673340,491.363129 715.181335,497.899292 712.902222,504.509125 
	C712.501709,505.670685 712.711060,508.190033 713.034302,508.260223 
	C714.660583,508.613312 716.418030,508.361938 718.668457,507.794464 
M232.291855,636.058228 
	C227.960144,632.617554 223.628433,629.176819 219.348907,625.777588 
	C220.082031,623.426575 220.560760,621.197388 221.464951,619.156677 
	C222.776367,616.196777 221.710785,614.114990 219.074631,613.167725 
	C216.273224,612.161011 215.640350,614.501770 214.953354,616.656555 
	C211.202042,628.422668 207.236618,640.122559 203.675293,651.944824 
	C203.130096,653.754639 203.612854,656.927368 204.863037,657.949402 
	C206.317764,659.138611 209.569290,659.555054 211.293030,658.734924 
	C217.612289,655.727966 223.659119,652.134521 229.735016,648.634277 
	C234.957886,645.625366 240.051071,642.391846 245.259338,639.356750 
	C247.966980,637.778809 247.447266,636.682617 245.453323,634.653198 
	C242.376312,631.521423 240.518250,635.012817 238.098602,635.368713 
	C236.339035,635.627502 235.248108,639.242126 232.291855,636.058228 
M368.954712,697.953674 
	C366.096039,697.359131 363.249695,696.340088 360.376160,696.256531 
	C353.992645,696.071106 350.108368,693.851501 349.760223,686.764587 
	C349.697052,685.479004 346.591858,684.342834 344.891052,683.137756 
	C344.291168,684.823975 342.980835,686.611267 343.203949,688.180481 
	C344.972107,700.615784 346.922668,713.029175 349.142212,725.390991 
	C349.416687,726.919861 351.390350,728.784546 352.955383,729.268372 
	C354.669159,729.798035 357.875275,729.620605 358.621307,728.522278 
	C366.038361,717.602173 373.143372,706.466675 380.118134,695.256104 
	C380.720612,694.287781 379.761749,692.348022 379.528137,690.859558 
	C377.701294,691.171387 375.434204,690.922485 374.152313,691.928589 
	C372.300415,693.382202 371.162689,695.745789 368.954712,697.953674 
M754.377808,305.984619 
	C751.785400,306.330139 749.161194,306.521149 746.606140,307.047974 
	C735.526978,309.332275 729.710205,312.606018 730.033081,324.924133 
	C730.316101,335.721497 735.988586,341.492859 746.787415,340.838684 
	C754.877502,340.348602 762.898193,338.495697 770.912292,337.042572 
	C776.799255,335.975128 776.772156,335.825745 775.238586,329.767395 
	C773.052856,330.082123 770.810547,330.411011 768.566284,330.727020 
	C760.802673,331.820343 753.067017,333.295898 745.265015,333.874084 
	C739.299438,334.316223 735.219971,328.400024 736.751709,322.591766 
	C738.084290,317.538544 742.243835,314.858704 748.833679,313.934753 
	C756.540344,312.854218 764.177673,311.279419 772.342773,309.830719 
	C771.657715,307.181854 771.115234,305.083954 770.548584,302.892822 
	C765.127136,303.960632 760.189880,304.933105 754.377808,305.984619 
M452.000000,712.580627 
	C452.666779,718.269287 453.558563,723.942688 453.943542,729.650391 
	C454.426270,736.807495 455.190582,737.476562 461.779572,735.181152 
	C460.811066,726.378052 460.028198,717.576904 458.818909,708.834778 
	C457.942627,702.499512 460.871887,698.490173 467.315155,697.089600 
	C472.059631,696.058289 477.094269,700.168152 477.950684,705.650269 
	C479.084625,712.909180 480.122131,720.188538 480.955811,727.487183 
	C481.638763,733.466553 481.876312,733.762390 488.475372,732.064087 
	C487.325714,723.248718 486.053558,714.353394 485.034454,705.429077 
	C484.083038,697.097717 478.802124,691.220459 471.713409,691.000427 
	C458.778198,690.598877 453.419067,694.245605 452.010803,704.634399 
	C451.697784,706.943359 451.987671,709.334167 452.000000,712.580627 
M520.960938,65.437828 
	C525.797424,69.275642 530.844177,72.881912 535.404663,77.023689 
	C539.130066,80.407013 538.732849,82.963928 535.051636,86.486870 
	C531.322937,90.055267 527.402527,88.236336 523.529175,86.981415 
	C518.637329,85.396561 514.518005,83.192307 514.847534,76.892525 
	C514.895081,75.983559 512.917725,74.968681 511.877411,74.002815 
	C510.918640,75.050873 508.939880,76.493042 509.167694,77.082634 
	C510.579346,80.736191 511.832764,84.784645 514.361938,87.605072 
	C520.121399,94.027786 528.151123,93.955437 535.762573,92.492851 
	C539.828430,91.711563 542.180481,87.825096 542.994568,83.514359 
	C544.142761,77.434502 540.833069,73.491562 536.475891,70.152176 
	C533.278992,67.702003 529.825256,65.584427 526.653503,63.104435 
	C522.315369,59.712467 521.393555,53.118568 525.381836,51.583263 
	C528.758911,50.283215 533.505737,50.347446 536.824341,51.751251 
	C539.720276,52.976273 542.747803,56.667755 543.332581,59.725525 
	C543.825928,62.305527 544.589539,63.722713 546.504883,63.733452 
	C547.328308,63.738071 549.099854,60.723904 548.813171,59.446587 
	C548.133850,56.420383 547.135803,52.988415 545.089844,50.842445 
	C540.357300,45.878647 533.927612,44.203770 527.253418,45.104172 
	C518.297729,46.312370 515.207581,55.694538 520.960938,65.437828 
M480.646271,41.119007 
	C481.294769,43.051102 481.943268,44.983196 482.647247,47.080513 
	C484.114685,46.955658 485.532288,46.835041 488.610718,46.573116 
	C486.520752,42.726681 485.269470,39.470314 483.215851,36.840515 
	C478.783234,31.164200 472.235687,31.903334 466.028320,32.016720 
	C461.420227,32.100891 457.101990,35.444630 456.004364,39.601437 
	C454.376343,45.766720 455.622620,50.199539 460.279541,52.976719 
	C465.100983,55.852013 470.359497,58.033916 475.003052,61.150536 
	C477.181488,62.612640 479.620514,65.547554 479.638489,67.833168 
	C479.655792,70.026909 477.159058,73.142822 474.955383,74.278496 
	C468.913879,77.392006 459.131592,73.437469 456.711456,67.087883 
	C455.482025,63.862343 453.871643,63.397957 449.848846,64.847672 
	C451.566925,68.167610 452.556488,71.720016 454.796692,74.090523 
	C460.703583,80.341064 468.253540,80.930710 476.351624,79.233788 
	C480.640930,78.334984 483.656036,76.085648 484.843445,72.128738 
	C486.886932,65.318977 484.050385,59.505352 477.632935,56.241478 
	C473.478699,54.128666 469.331268,51.994713 465.104553,50.034550 
	C461.295563,48.268074 460.032959,45.041756 461.210815,41.544044 
	C461.840546,39.674175 464.377075,37.521450 466.330139,37.204681 
	C471.179443,36.418159 476.187683,36.613438 480.646271,41.119007 
M251.152222,85.001289 
	C252.714157,85.783234 254.213989,86.766472 255.860474,87.274368 
	C256.909332,87.597916 258.175568,87.216705 259.344330,87.151505 
	C259.277863,85.989029 259.670959,84.334114 259.055603,83.759804 
	C257.445251,82.256912 255.520737,80.501930 253.494385,80.148224 
	C248.244308,79.231819 243.006622,80.002205 238.549149,83.193474 
	C233.917984,86.509087 229.181717,92.727470 231.947418,99.410789 
	C234.218460,104.898781 239.285690,108.037941 245.515442,106.959213 
	C250.919586,106.023445 256.243591,104.517685 261.675354,103.902069 
	C263.804291,103.660789 266.823303,104.541107 268.160522,106.045357 
	C269.363831,107.398918 269.846680,111.138779 268.849854,112.365509 
	C266.170746,115.662460 262.746796,118.496368 259.205383,120.907097 
	C256.163208,122.977989 252.844116,122.252625 249.600403,120.302307 
	C248.310852,119.526955 246.211624,120.098221 244.481018,120.056419 
	C245.317230,121.705902 245.731155,123.920753 247.058762,124.912361 
	C255.188919,130.985016 270.860626,123.280128 274.078857,114.950317 
	C275.977966,110.034760 275.118042,105.699722 272.132599,101.695496 
	C269.355133,97.970230 265.143005,97.450371 261.051392,98.121864 
	C255.831940,98.978455 250.778717,100.992050 245.549591,101.580887 
	C243.161087,101.849838 240.055801,100.463730 238.102600,98.835945 
	C234.782318,96.068832 236.367950,92.364372 238.704712,90.024773 
	C241.747467,86.978340 245.468521,84.408539 251.152222,85.001289 
M404.070984,35.411587 
	C408.869812,35.274166 413.671082,35.192814 418.466675,34.981838 
	C422.400757,34.808765 422.953156,34.060871 422.323730,29.676897 
	C413.032867,30.143524 403.694153,30.612556 393.596344,31.119713 
	C394.082764,36.977055 394.680664,42.491512 394.967896,48.022102 
	C395.421539,56.756104 395.757050,65.498955 395.947723,74.242310 
	C396.008545,77.031380 396.987091,78.238037 399.781067,78.010437 
	C404.354279,77.637894 408.933929,77.345634 413.509094,76.996346 
	C417.669373,76.678741 421.827301,76.330292 425.955841,75.997887 
	C426.065918,72.207771 425.874054,70.850006 421.541290,71.516426 
	C414.910492,72.536301 408.007141,71.784088 400.632446,71.784088 
	C400.632446,67.048820 400.632446,61.700947 400.632446,56.366920 
	C407.799347,55.913635 415.299286,55.439281 422.751373,54.967960 
	C422.751373,53.077572 422.751373,51.669781 422.751373,50.158436 
	C415.054047,50.514126 407.592163,50.858940 400.381073,51.192162 
	C399.889008,45.653378 399.474396,40.986912 399.027222,35.953499 
	C400.731628,35.953499 402.028839,35.953499 404.070984,35.411587 
M206.552887,129.034027 
	C209.388702,132.219833 212.162659,135.463440 215.074265,138.578415 
	C219.897278,143.738297 220.773636,150.578598 214.975128,155.691360 
	C208.978607,160.978729 204.043060,161.372177 198.121826,155.546082 
	C191.769897,149.296173 185.890228,142.567825 179.594604,136.257645 
	C178.539520,135.200119 176.418900,135.205688 174.790619,134.720047 
	C175.118042,136.563324 174.838745,138.912811 175.879837,140.160675 
	C179.988708,145.085571 184.486115,149.689102 188.888931,154.365219 
	C193.144302,158.884735 197.316620,163.899567 203.791260,164.886642 
	C212.394516,166.198288 218.753433,161.638641 222.587463,154.577469 
	C225.677658,148.886246 225.157593,142.431702 220.648895,137.221939 
	C214.310822,129.898376 207.731720,122.778748 201.085999,115.731956 
	C200.243912,114.839043 198.377670,114.912003 196.985901,114.537483 
	C197.060425,116.269814 196.461441,118.542534 197.336227,119.632751 
	C199.920425,122.853378 203.087357,125.606453 206.552887,129.034027 
M642.405396,609.892151 
	C643.728210,611.554138 644.914795,613.350403 646.397339,614.855042 
	C653.008911,621.565002 659.705017,628.191650 666.903564,635.380676 
	C663.480286,638.273499 660.562317,640.739258 657.850891,643.030579 
	C660.259949,648.680786 661.899841,649.460449 664.927795,646.529297 
	C671.263672,640.396118 677.512634,634.165466 683.561096,627.752136 
	C684.337708,626.928650 683.709106,624.779846 683.731445,623.245056 
	C682.196228,623.282776 680.164368,622.709656 679.221741,623.476074 
	C676.703125,625.524048 674.652222,628.147278 673.227966,629.672058 
	C664.948669,621.764832 657.294189,614.455261 649.640869,607.144470 
	C645.918884,603.589050 643.785400,604.170166 642.405396,609.892151 
M402.696045,737.000000 
	C410.381897,737.000000 418.067780,737.000000 425.787384,737.000000 
	C426.200043,731.012024 426.200043,731.011047 419.818787,731.000549 
	C417.690735,730.997070 415.562653,731.000000 413.348206,731.000000 
	C413.970856,718.500977 414.571381,706.445129 415.174683,694.334045 
	C412.378937,694.334045 410.334045,694.334045 408.235718,694.334045 
	C407.538330,706.397156 406.860321,718.124390 406.166046,730.132996 
	C401.291748,730.132996 397.350647,730.132996 393.284729,730.132996 
	C393.284729,732.215881 393.284729,733.944580 393.284729,735.732239 
	C396.281982,736.181030 399.016846,736.590515 402.696045,737.000000 
M741.389099,260.917297 
	C745.992188,259.098297 750.595276,257.279266 755.297058,255.421249 
	C754.573242,253.263290 754.067383,251.754990 753.475586,249.990616 
	C751.790833,250.069641 750.005127,249.742569 748.544556,250.287308 
	C737.411621,254.439224 726.313721,258.690979 715.298035,263.141998 
	C714.226501,263.574951 712.885254,265.865387 713.192322,266.785187 
	C715.613708,274.039429 718.235657,281.243347 721.265869,288.259827 
	C721.722351,289.316895 724.616760,289.321106 726.383423,289.812347 
	C726.596985,288.448120 727.319458,286.917999 726.937866,285.747864 
	C725.079529,280.048706 722.926025,274.445831 720.851685,268.739410 
	C727.606567,266.122131 734.109802,263.602325 741.389099,260.917297 
M246.248688,687.053101 
	C248.785538,689.441162 250.673294,689.897522 252.578598,686.055420 
	C254.806610,681.562683 257.787140,677.448120 260.347931,673.114319 
	C264.453949,666.165405 268.483154,659.171082 272.476715,652.312988 
	C265.813690,646.807007 266.377747,648.730957 263.605621,653.066284 
	C257.830597,662.097839 252.474091,671.402344 247.144409,680.708618 
	C246.126328,682.486328 246.022827,684.787781 246.248688,687.053101 
M561.925476,666.640503 
	C567.182800,677.526672 572.544250,688.364441 577.631104,699.329712 
	C579.074524,702.441223 581.329773,702.604370 583.686951,701.604797 
	C586.528137,700.400024 585.702209,698.269836 584.529724,695.941040 
	C579.238159,685.430969 574.188477,674.799133 568.893860,664.290649 
	C568.371582,663.254028 566.304504,661.885620 565.763245,662.176575 
	C564.131897,663.052979 562.900024,664.672913 561.925476,666.640503 
M619.491211,103.987938 
	C618.334351,102.661293 617.338562,100.387527 615.994934,100.159035 
	C605.974548,98.454956 601.036987,104.169586 604.195435,113.460403 
	C604.404541,114.075592 604.825500,114.633095 604.957825,115.257698 
	C605.737183,118.936356 608.327515,119.512199 611.374634,118.802544 
	C621.949585,116.339729 622.747375,114.952072 619.491211,103.987938 
M112.738647,500.295074 
	C107.509399,499.253204 102.750961,500.886993 99.314980,504.457886 
	C96.037338,507.864227 100.404900,511.224304 100.910095,514.688293 
	C100.981956,515.181030 100.838028,515.861511 101.113037,516.140320 
	C102.112198,517.153320 103.501427,519.005737 104.288391,518.800049 
	C108.564964,517.682312 112.749832,516.152710 116.849022,514.477905 
	C117.523933,514.202087 118.178291,512.296265 117.883400,511.497925 
	C116.548843,507.885193 114.870155,504.399567 112.738647,500.295074 
M302.033478,86.289764 
	C298.631683,78.013924 295.339752,69.689568 291.725983,61.507339 
	C291.081726,60.048592 289.102905,59.179279 287.740326,58.037796 
	C287.450806,59.854935 286.410370,61.967014 286.990021,63.442791 
	C291.838196,75.786919 296.915161,88.043877 302.170685,100.220299 
	C302.594025,101.201088 304.861664,101.385872 306.272247,101.940559 
	C306.655029,100.587761 307.690216,98.999748 307.302612,97.924744 
	C305.950623,94.174995 304.106476,90.602692 302.033478,86.289764 
M778.192444,440.443756 
	C777.462036,444.692902 776.722412,448.940521 776.013672,453.193298 
	C775.933289,453.675598 775.824768,454.451324 776.073364,454.641602 
	C777.606140,455.814850 779.237732,456.859070 780.836487,457.946198 
	C781.339172,456.545410 781.860840,455.151001 782.339050,453.741882 
	C782.774597,452.458435 783.007446,451.082428 783.599060,449.879761 
	C786.232117,444.527863 784.455688,440.781433 778.192444,440.443756 
M345.367004,733.923462 
	C343.718292,735.052612 342.069580,736.181763 339.511841,737.933533 
	C348.353302,740.268066 353.838898,738.124390 355.854523,732.625366 
	C351.300476,730.934021 351.300476,730.934021 345.367004,733.923462 
z"/>
<path fill="#FFFFFF" opacity="1.000000" stroke="none" 
	d="
M126.204956,241.554306 
	C129.157013,245.237366 132.172928,248.871567 135.040253,252.619446 
	C137.204025,255.447739 135.692932,259.419617 132.039246,259.929565 
	C126.574417,260.692291 121.043556,260.982056 114.798027,261.539276 
	C123.594040,265.522766 131.923798,269.295105 140.242294,273.062347 
	C135.671494,283.070251 137.656830,282.365173 127.703094,278.246765 
	C117.941826,274.208038 108.208862,270.093231 98.567268,265.779846 
	C96.791756,264.985535 94.000793,262.509094 94.272087,261.796539 
	C95.282646,259.142212 94.458755,255.031433 99.633530,254.849457 
	C107.588898,254.569702 115.511925,253.370178 123.876183,252.517319 
	C119.565933,246.903534 115.707634,240.884048 110.846519,235.828888 
	C106.056549,230.847641 108.533249,227.203171 111.476898,222.888550 
	C124.498543,228.533920 137.347580,234.246994 150.323318,239.656113 
	C155.163620,241.673859 152.531372,244.853622 151.722931,247.329758 
	C151.011490,249.508774 149.278381,250.711823 146.249832,249.147430 
	C140.294815,246.071365 133.987686,243.676971 127.352753,240.678772 
	C126.339630,240.316544 125.799980,240.276093 125.260330,240.235641 
	C125.575203,240.675201 125.890076,241.114761 126.204956,241.554306 
z"/>
<path fill="#FFFFFF" opacity="1.000000" stroke="none" 
	d="
M126.000000,319.097412 
	C125.343315,323.345398 125.051384,327.242493 123.951050,330.896088 
	C121.908844,337.677155 117.211311,341.367126 110.315788,340.872986 
	C102.916298,340.342651 95.420670,339.445648 88.274605,337.549438 
	C80.548218,335.499207 75.807213,323.782379 78.300865,315.170319 
	C80.419754,307.852509 83.834373,301.207489 92.125885,300.206329 
	C97.536377,299.553040 103.197021,300.769836 108.721680,301.369446 
	C110.749542,301.589539 112.725304,302.391388 114.695946,303.018677 
	C121.823845,305.287506 127.096619,311.751770 126.000000,319.097412 
M116.683289,317.151642 
	C110.634926,310.720398 102.350761,310.735413 94.591568,310.236237 
	C90.362343,309.964203 87.556290,313.546082 87.009674,318.077362 
	C86.454865,322.676544 88.065331,326.329407 92.589745,327.751282 
	C96.405762,328.950531 100.495361,329.247314 104.412872,330.161926 
	C113.632835,332.314545 119.410309,326.716034 116.683289,317.151642 
z"/>
<path fill="#FFFFFF" opacity="1.000000" stroke="none" 
	d="
M101.238281,376.263611 
	C106.841835,371.403625 112.193535,366.801422 117.998505,361.809418 
	C120.273148,371.741364 118.855209,375.039612 111.936226,380.076691 
	C108.755692,382.392181 106.097000,385.424469 102.273071,389.000000 
	C106.463470,389.000000 109.699112,389.323608 112.844025,388.927277 
	C118.105759,388.264191 119.807137,390.481964 119.022278,395.392365 
	C118.867477,396.360840 118.999977,397.375275 118.999977,399.000000 
	C113.992012,399.000000 109.062325,399.000000 104.132637,399.000000 
	C95.309937,399.000000 86.485756,398.906128 77.665268,399.045746 
	C74.089378,399.102356 71.831848,398.933899 71.811607,394.129700 
	C71.790634,389.150970 74.046310,388.666901 77.909012,388.958527 
	C80.716553,389.170502 83.552956,389.000000 88.222321,389.000000 
	C82.898491,383.957581 78.659492,379.701599 74.151962,375.752045 
	C70.738968,372.761597 72.284805,369.074310 72.336624,365.611359 
	C72.338326,365.498016 75.925148,364.709778 76.788605,365.455078 
	C82.783882,370.630096 88.500443,376.127991 94.551003,381.749512 
	C96.584618,380.097412 98.785522,378.309418 101.238281,376.263611 
z"/>
<path fill="#B98264" opacity="1.000000" stroke="none" 
	d="
M527.589966,677.730896 
	C536.994202,674.643921 537.024231,674.634216 540.041565,683.954712 
	C543.099304,693.400024 545.927734,702.923645 549.203857,712.291565 
	C550.237854,715.248169 550.022644,716.362427 546.835266,717.153137 
	C541.319946,718.521484 535.959473,720.501099 530.471252,721.993469 
	C519.361938,725.014526 513.859558,716.063354 516.500916,707.000732 
	C516.679138,706.389160 516.895569,705.788757 517.075256,705.241150 
	C508.958069,698.926453 507.102112,695.068542 510.098846,688.116211 
	C511.273438,685.391113 513.961853,682.834717 516.605957,681.351440 
	C519.787354,679.566895 523.656067,679.007568 527.589966,677.730896 
M531.392639,696.989197 
	C532.905762,696.478638 534.418945,695.968079 536.152344,695.383179 
	C535.791504,694.294067 535.490295,693.391846 535.193359,692.488220 
	C531.651428,681.709656 531.593811,681.577576 521.252136,686.105896 
	C517.888245,687.578857 514.946106,690.014221 516.257568,694.515198 
	C517.322266,698.169678 521.185608,699.914185 525.500366,698.744263 
	C527.218689,698.278320 528.878540,697.596802 531.392639,696.989197 
M527.790771,715.990540 
	C532.154419,714.976013 536.518127,713.961548 541.459839,712.812622 
	C540.320435,708.602783 539.336670,704.968262 538.264709,701.007629 
	C534.264099,702.446960 530.645081,703.346741 527.455994,705.051025 
	C525.614685,706.034851 523.295044,708.329224 523.312134,710.012207 
	C523.332275,712.000183 525.641846,713.964966 527.790771,715.990540 
z"/>
<path fill="#FFFFFF" opacity="1.000000" stroke="none" 
	d="
M165.933502,180.975800 
	C173.345703,178.479034 181.407288,184.123322 182.122437,191.289673 
	C182.770569,197.784531 179.906342,202.538818 176.272598,207.228928 
	C175.182983,208.635300 174.062302,210.021194 173.040466,211.475891 
	C167.182419,219.815521 167.704758,217.741623 161.063217,213.397934 
	C151.764206,207.316193 142.985550,200.443100 133.903534,194.022781 
	C131.021057,191.985062 129.791458,190.201401 132.452789,186.890289 
	C135.768982,182.764435 138.412079,178.102051 141.664993,173.919586 
	C144.945389,169.701736 149.671783,168.083847 154.780838,169.117813 
	C159.721008,170.117630 162.780258,173.582855 164.035248,178.569565 
	C164.255875,179.446152 165.007675,180.189056 165.933502,180.975800 
M176.999893,194.400177 
	C177.042587,190.171295 175.128693,187.478622 171.091797,185.923599 
	C167.080994,184.378616 164.621857,186.488556 162.470535,189.116577 
	C159.331482,192.951157 156.480881,197.021866 153.406799,201.126083 
	C157.508667,204.037766 160.975128,206.674332 164.648438,208.981522 
	C165.560623,209.554459 167.885712,209.574081 168.297867,208.976532 
	C171.376663,204.512833 174.137909,199.830078 176.999893,194.400177 
M151.623276,174.001907 
	C146.518478,178.884201 141.413681,183.766495 136.318436,188.639648 
	C140.831360,191.940109 144.207214,196.291687 147.606430,196.310043 
	C150.417297,196.325195 153.270889,191.236801 156.066116,188.371246 
	C156.499496,187.926956 156.726883,187.279572 157.040741,186.721161 
	C160.667252,180.268967 159.444351,176.909363 151.623276,174.001907 
z"/>
<path fill="#B98264" opacity="1.000000" stroke="none" 
	d="
M281.138062,692.738403 
	C283.376312,686.636414 287.617706,683.896484 294.177979,683.792969 
	C293.388977,677.246460 292.633698,670.979675 291.881927,664.742126 
	C297.136230,663.840210 298.559296,664.819580 299.007721,669.264038 
	C299.319733,672.356018 299.842926,675.434387 300.000916,678.532593 
	C300.316223,684.715332 303.817841,687.727173 310.384949,688.405151 
	C311.513184,685.468201 312.830811,682.023071 314.159821,678.582214 
	C316.324371,672.978088 318.038055,672.614563 322.980652,676.808228 
	C317.570190,689.807495 312.144348,702.843811 306.440399,716.548218 
	C299.386566,713.388672 292.417328,710.725952 285.908783,707.210388 
	C280.427856,704.249878 280.588379,698.566650 281.138062,692.738403 
M304.448029,702.057678 
	C307.945587,694.546387 309.580475,695.507385 300.277863,691.968445 
	C299.218384,691.565369 298.173859,691.109192 297.160248,690.601929 
	C293.525513,688.783020 291.085449,690.626831 289.301331,693.457825 
	C287.649719,696.078674 286.762756,699.083069 289.909271,701.318237 
	C292.385468,703.077148 295.142395,704.445068 297.795441,705.950012 
	C301.469910,708.034424 303.650146,707.105896 304.448029,702.057678 
z"/>
<path fill="#B98264" opacity="1.000000" stroke="none" 
	d="
M612.179871,640.670776 
	C608.895874,636.771606 609.418213,633.983704 614.881836,631.733704 
	C622.819946,643.241211 630.917053,654.979248 639.504517,667.428162 
	C632.268494,671.825500 626.527466,678.090210 617.882690,680.091064 
	C611.898987,681.475952 608.046570,678.649719 605.058960,674.384033 
	C602.036987,670.069214 602.161926,665.216003 604.888000,659.996277 
	C599.258484,657.201355 593.638245,654.411072 587.854858,651.539795 
	C589.971375,647.145020 592.706360,645.784119 596.969971,648.418396 
	C599.187439,649.788452 601.605408,650.840454 603.957947,651.984314 
	C611.864990,655.828735 610.505737,655.309448 618.158325,649.210205 
	C616.267700,646.481079 614.351746,643.715515 612.179871,640.670776 
M626.015259,660.520508 
	C624.640015,658.719177 623.264771,656.917847 621.671936,654.831543 
	C618.361511,657.432556 615.314148,659.809814 612.285645,662.210999 
	C608.725342,665.033752 609.453064,668.270142 611.841431,671.223511 
	C614.314270,674.281311 617.481018,674.963623 620.928772,672.546204 
	C623.845581,670.501160 626.767883,668.463989 629.751709,666.378723 
	C628.697876,664.640747 627.605347,662.838928 626.015259,660.520508 
z"/>
<path fill="#B98264" opacity="1.000000" stroke="none" 
	d="
M697.244873,205.242920 
	C702.971375,202.180710 708.212524,198.771637 713.939148,196.713440 
	C721.217590,194.097534 728.437134,198.478867 732.309265,206.779114 
	C735.965210,214.616119 734.071106,222.865341 727.486938,227.148651 
	C723.251648,229.903915 719.078125,232.862228 714.540771,235.024124 
	C702.759399,240.637558 690.427917,232.655807 689.959290,219.534790 
	C689.742493,213.465118 691.230957,208.476212 697.244873,205.242920 
M696.942871,218.120300 
	C696.530518,224.120789 702.461914,231.576508 706.853333,229.735504 
	C713.200867,227.074493 719.326599,223.490021 724.829895,219.347046 
	C728.550049,216.546524 728.298584,211.783676 725.414490,208.063522 
	C722.652283,204.500565 719.341309,201.261475 714.143799,204.042816 
	C709.992737,206.264221 705.641541,208.215378 701.824463,210.915894 
	C699.736572,212.393066 698.572571,215.176208 696.942871,218.120300 
z"/>
<path fill="#B98264" opacity="1.000000" stroke="none" 
	d="
M774.268066,382.608887 
	C773.296326,377.401459 769.942566,374.316040 764.679321,374.046753 
	C760.524536,373.834229 756.339661,373.817963 752.187195,374.052124 
	C747.036621,374.342560 742.930359,378.205902 742.048279,383.151245 
	C741.256714,387.589081 744.020020,392.308197 749.016357,393.980042 
	C753.253052,395.397675 751.748901,398.501221 751.934998,401.203186 
	C744.826904,403.408844 736.898682,397.232544 735.761108,385.605347 
	C732.518188,390.096832 728.896362,391.466278 725.536072,389.048706 
	C722.921265,387.167450 722.009277,384.332092 723.992798,381.496368 
	C724.815674,380.320129 726.592346,379.811157 728.927979,378.398254 
	C728.770264,380.733093 728.775146,381.193420 728.702087,381.641083 
	C728.493408,382.919434 728.253113,384.192596 728.025269,385.467804 
	C728.617798,385.513275 729.716492,385.652100 729.727844,385.590302 
	C729.931274,384.487762 730.074097,383.361908 730.090271,382.239044 
	C730.161621,377.284943 733.704590,379.532349 736.344238,379.362915 
	C738.719421,369.462799 745.907349,366.658630 755.169067,366.982452 
	C758.331116,367.093018 761.500305,366.994659 764.666199,367.000977 
	C776.153015,367.023804 782.481934,376.379425 780.789429,387.018707 
	C779.778503,393.373779 777.319763,399.577087 769.688904,401.020233 
	C768.276855,401.287292 766.679749,400.576447 765.168091,400.316956 
	C765.798340,398.370758 765.962708,395.118103 767.137512,394.699249 
	C772.943787,392.629028 774.414734,388.354736 774.268066,382.608887 
z"/>
<path fill="#B98264" opacity="1.000000" stroke="none" 
	d="
M775.000000,444.063477 
	C774.995178,458.682465 766.119995,465.228210 750.900391,461.807739 
	C745.137939,460.512665 738.851013,460.204651 734.479553,455.058380 
	C729.141724,448.774597 730.268677,441.874786 732.539551,435.105347 
	C734.634460,428.860413 739.613281,425.589111 746.173462,426.109802 
	C752.318298,426.597504 758.459900,427.699341 764.476379,429.081604 
	C771.397705,430.671783 775.844421,436.529541 775.000000,444.063477 
M751.772217,433.908905 
	C745.062073,431.755981 740.171997,434.033478 737.901672,440.054657 
	C735.784729,445.669067 737.789124,450.789520 744.740295,452.740814 
	C749.567627,454.095917 754.703674,454.484680 759.734802,454.940094 
	C764.094971,455.334808 767.056091,452.716003 768.415894,448.926025 
	C769.718384,445.295807 770.189331,440.922607 766.091980,438.796875 
	C761.903259,436.623840 757.147827,435.543274 751.772217,433.908905 
z"/>
<path fill="#FFFFFF" opacity="1.000000" stroke="none" 
	d="
M332.920105,57.074814 
	C335.066528,66.313034 337.020966,75.602089 339.447052,84.766266 
	C340.526550,88.843964 339.608490,90.346382 335.372742,89.901794 
	C331.702606,75.811905 328.033325,61.853111 324.490692,47.862255 
	C324.230530,46.834812 324.597412,44.801193 325.174194,44.587250 
	C326.341278,44.154369 328.173584,44.180416 329.159576,44.854240 
	C331.707092,46.595184 333.987976,48.741837 336.296173,50.814602 
	C343.513763,57.295921 350.694794,63.817963 358.346436,70.772751 
	C359.138245,71.352890 359.473572,71.484520 359.808899,71.616135 
	C359.565887,71.052483 359.322906,70.488838 359.079895,69.925186 
	C356.928833,60.679363 354.969208,51.382828 352.539886,42.210697 
	C351.448486,38.090012 352.459778,36.662502 356.800995,37.115295 
	C360.217407,50.928055 363.641571,64.637115 366.952728,78.373405 
	C367.274506,79.708397 366.898102,81.211685 366.845795,82.636848 
	C364.894012,82.262062 362.384827,82.529671 361.085846,81.402542 
	C355.098938,76.207664 349.477875,70.593353 343.667267,65.192215 
	C340.540466,62.285759 337.296082,59.505848 333.650879,56.223778 
	C332.861755,55.647106 332.526428,55.515488 332.191132,55.383869 
	C332.434113,55.947521 332.677094,56.511169 332.920105,57.074814 
z"/>
<path fill="#B98264" opacity="1.000000" stroke="none" 
	d="
M688.092102,148.582382 
	C696.850098,154.112076 700.978760,162.878311 697.853333,169.705170 
	C697.211731,171.106796 695.058960,171.816635 693.602722,172.845337 
	C692.805969,171.050812 690.933350,168.884216 691.402527,167.527496 
	C693.229126,162.245743 690.435364,158.803955 687.113708,155.934937 
	C685.703491,154.716888 682.487732,154.426361 680.648865,155.142609 
	C677.957092,156.191055 677.223816,159.006317 678.418945,161.882614 
	C680.228882,166.238739 682.160156,170.545227 683.921448,174.920532 
	C685.731750,179.417877 685.084534,183.384583 681.561829,187.016403 
	C677.587402,191.114044 672.692505,190.749374 668.188477,189.454041 
	C661.186035,187.440170 654.781433,177.596237 655.045654,170.422516 
	C655.103943,168.839386 655.361206,167.021576 656.208679,165.775635 
	C657.107788,164.453735 658.818665,163.684052 660.174988,162.673187 
	C661.082581,164.554840 662.951477,166.560257 662.727966,168.296265 
	C661.856140,175.066910 664.429016,180.719116 670.752808,183.134705 
	C672.214294,183.692993 674.801575,183.259491 675.912964,182.239120 
	C677.064880,181.181580 677.849060,178.615524 677.399170,177.132385 
	C676.131653,172.953598 673.986938,169.050568 672.488708,164.929565 
	C670.783142,160.238464 669.369446,155.370331 673.442078,151.078995 
	C677.521423,146.780609 682.365417,145.870483 688.092102,148.582382 
z"/>
<path fill="#B98264" opacity="1.000000" stroke="none" 
	d="
M715.885559,571.402344 
	C713.403442,568.158813 714.584656,565.078064 718.263550,565.095276 
	C724.178955,565.122925 726.857483,561.325745 728.476440,556.732300 
	C729.065857,555.059998 728.195251,551.958679 726.865845,550.800354 
	C725.706238,549.790039 722.416321,549.793701 721.025146,550.746826 
	C716.716797,553.698669 712.847473,557.295959 708.841492,560.682617 
	C705.116516,563.831665 701.067810,563.605164 696.848633,561.963745 
	C692.408203,560.236328 690.836731,556.994019 690.929138,552.273193 
	C691.128235,542.109070 696.771545,533.398499 705.425598,531.396362 
	C707.593933,530.894775 710.522156,531.362000 712.309326,532.562622 
	C713.130005,533.113892 712.037415,536.513367 711.816956,538.578918 
	C703.743225,537.739685 697.920532,542.113281 697.194824,549.466614 
	C697.012207,551.317444 698.448669,554.232666 700.004761,555.088623 
	C701.472534,555.896057 704.469299,555.230835 706.098633,554.158081 
	C709.229004,552.096924 711.912964,549.338501 714.700562,546.780457 
	C719.788879,542.111206 724.644104,540.870483 729.329468,543.155212 
	C733.703552,545.288147 736.149536,550.891113 734.920776,557.356689 
	C733.241089,566.195068 726.068726,573.804016 715.885559,571.402344 
z"/>
<path fill="#B98264" opacity="1.000000" stroke="none" 
	d="
M173.278748,600.651245 
	C172.390442,598.482788 171.654602,596.669922 171.044495,594.815674 
	C168.904602,588.312134 169.977890,584.149414 174.555939,580.965271 
	C178.888260,577.952026 185.831390,578.113037 190.161362,581.775269 
	C195.604187,586.378784 199.931992,591.807251 198.920242,599.560913 
	C198.575623,602.201782 197.305176,604.721924 196.316177,607.727539 
	C191.705612,605.057068 190.196793,603.059814 192.432953,598.784485 
	C194.581223,594.677124 186.317154,584.671936 181.687439,585.112366 
	C178.526245,585.413086 176.179245,589.200134 177.342148,592.626282 
	C178.543121,596.164429 180.190735,599.548279 181.524551,603.044739 
	C183.941498,609.380554 183.606384,616.107239 179.611664,619.296509 
	C173.600998,624.095337 167.886322,622.227844 162.290771,617.564697 
	C157.285004,613.392944 154.839310,607.482483 156.121292,600.757874 
	C156.443634,599.067139 157.805710,597.286682 159.204254,596.224731 
	C159.799927,595.772400 162.402954,596.714050 162.869247,597.639282 
	C163.537033,598.964478 163.519836,601.001770 163.025238,602.476868 
	C161.564651,606.832886 166.343964,614.582764 170.997437,614.993530 
	C174.420334,615.295654 177.269394,612.089905 176.311371,608.791077 
	C175.541580,606.140320 174.442078,603.585388 173.278748,600.651245 
z"/>
<path fill="#B98264" opacity="1.000000" stroke="none" 
	d="
M718.398926,508.058624 
	C716.418030,508.361938 714.660583,508.613312 713.034302,508.260223 
	C712.711060,508.190033 712.501709,505.670685 712.902222,504.509125 
	C715.181335,497.899292 717.673340,491.363129 720.067932,484.792755 
	C721.189575,481.714844 722.597900,480.389435 726.317200,481.873566 
	C737.341431,486.272644 748.584534,490.121521 759.639587,494.447632 
	C760.717529,494.869446 761.980042,497.393402 761.638916,498.452698 
	C759.296570,505.725311 756.794739,512.970520 753.840454,520.013184 
	C752.077576,524.215576 749.382080,521.172607 746.690796,520.550476 
	C748.929077,514.524048 750.915527,509.033478 753.015137,503.586578 
	C753.976746,501.091949 754.376831,499.380737 750.747009,498.799866 
	C748.286133,498.406006 746.006104,496.882416 743.052185,495.608276 
	C741.257324,500.696259 739.861633,505.525330 737.797119,510.049164 
	C737.037109,511.714508 734.474243,513.921265 733.123474,513.681885 
	C729.854248,513.102478 731.029480,510.477509 731.883667,508.196045 
	C733.648071,503.483246 735.205261,498.692902 736.970703,493.578033 
	C733.251770,492.158844 729.515869,490.733154 725.392761,489.159698 
	C723.124023,495.446869 720.896240,501.620667 718.398926,508.058624 
z"/>
<path fill="#B98264" opacity="1.000000" stroke="none" 
	d="
M232.597778,636.239380 
	C235.248108,639.242126 236.339035,635.627502 238.098602,635.368713 
	C240.518250,635.012817 242.376312,631.521423 245.453323,634.653198 
	C247.447266,636.682617 247.966980,637.778809 245.259338,639.356750 
	C240.051071,642.391846 234.957886,645.625366 229.735016,648.634277 
	C223.659119,652.134521 217.612289,655.727966 211.293030,658.734924 
	C209.569290,659.555054 206.317764,659.138611 204.863037,657.949402 
	C203.612854,656.927368 203.130096,653.754639 203.675293,651.944824 
	C207.236618,640.122559 211.202042,628.422668 214.953354,616.656555 
	C215.640350,614.501770 216.273224,612.161011 219.074631,613.167725 
	C221.710785,614.114990 222.776367,616.196777 221.464951,619.156677 
	C220.560760,621.197388 220.082031,623.426575 219.348907,625.777588 
	C223.628433,629.176819 227.960144,632.617554 232.597778,636.239380 
M221.611694,645.080933 
	C223.654602,643.924316 225.697525,642.767700 228.249893,641.322632 
	C224.377991,638.342285 220.905563,635.669495 216.946228,632.621887 
	C214.785950,639.190125 212.933426,644.822632 210.795227,651.323730 
	C214.808136,649.033142 217.904404,647.265808 221.611694,645.080933 
z"/>
<path fill="#B98264" opacity="1.000000" stroke="none" 
	d="
M369.337463,697.837402 
	C371.162689,695.745789 372.300415,693.382202 374.152313,691.928589 
	C375.434204,690.922485 377.701294,691.171387 379.528137,690.859558 
	C379.761749,692.348022 380.720612,694.287781 380.118134,695.256104 
	C373.143372,706.466675 366.038361,717.602173 358.621307,728.522278 
	C357.875275,729.620605 354.669159,729.798035 352.955383,729.268372 
	C351.390350,728.784546 349.416687,726.919861 349.142212,725.390991 
	C346.922668,713.029175 344.972107,700.615784 343.203949,688.180481 
	C342.980835,686.611267 344.291168,684.823975 344.891052,683.137695 
	C346.591858,684.342834 349.697052,685.479004 349.760223,686.764587 
	C350.108368,693.851501 353.992645,696.071106 360.376160,696.256531 
	C363.249695,696.340088 366.096039,697.359131 369.337463,697.837402 
M363.012970,709.482544 
	C364.032288,707.880249 365.051605,706.277893 366.271881,704.359741 
	C361.354553,703.233826 356.888916,702.211365 352.019836,701.096558 
	C353.108521,707.826477 354.124054,714.104065 355.259064,721.120483 
	C357.932190,717.026001 360.218079,713.524719 363.012970,709.482544 
z"/>
<path fill="#B98264" opacity="1.000000" stroke="none" 
	d="
M754.815247,305.945099 
	C760.189880,304.933105 765.127136,303.960632 770.548584,302.892822 
	C771.115234,305.083954 771.657715,307.181854 772.342773,309.830719 
	C764.177673,311.279419 756.540344,312.854218 748.833679,313.934753 
	C742.243835,314.858704 738.084290,317.538544 736.751709,322.591766 
	C735.219971,328.400024 739.299438,334.316223 745.265015,333.874084 
	C753.067017,333.295898 760.802673,331.820343 768.566284,330.727020 
	C770.810547,330.411011 773.052856,330.082123 775.238586,329.767395 
	C776.772156,335.825745 776.799255,335.975128 770.912292,337.042572 
	C762.898193,338.495697 754.877502,340.348602 746.787415,340.838684 
	C735.988586,341.492859 730.316101,335.721497 730.033081,324.924133 
	C729.710205,312.606018 735.526978,309.332275 746.606140,307.047974 
	C749.161194,306.521149 751.785400,306.330139 754.815247,305.945099 
z"/>
<path fill="#B98264" opacity="1.000000" stroke="none" 
	d="
M451.999969,712.133911 
	C451.987671,709.334167 451.697784,706.943359 452.010803,704.634399 
	C453.419067,694.245605 458.778198,690.598877 471.713409,691.000427 
	C478.802124,691.220459 484.083038,697.097717 485.034454,705.429077 
	C486.053558,714.353394 487.325714,723.248718 488.475372,732.064087 
	C481.876312,733.762390 481.638763,733.466553 480.955811,727.487183 
	C480.122131,720.188538 479.084625,712.909180 477.950684,705.650269 
	C477.094269,700.168152 472.059631,696.058289 467.315155,697.089600 
	C460.871887,698.490173 457.942627,702.499512 458.818909,708.834778 
	C460.028198,717.576904 460.811066,726.378052 461.779572,735.181152 
	C455.190582,737.476562 454.426270,736.807495 453.943542,729.650391 
	C453.558563,723.942688 452.666779,718.269287 451.999969,712.133911 
z"/>
<path fill="#FFFFFF" opacity="1.000000" stroke="none" 
	d="
M520.682617,65.180679 
	C515.207581,55.694538 518.297729,46.312370 527.253418,45.104172 
	C533.927612,44.203770 540.357300,45.878647 545.089844,50.842445 
	C547.135803,52.988415 548.133850,56.420383 548.813171,59.446587 
	C549.099854,60.723904 547.328308,63.738071 546.504883,63.733452 
	C544.589539,63.722713 543.825928,62.305527 543.332581,59.725525 
	C542.747803,56.667755 539.720276,52.976273 536.824341,51.751251 
	C533.505737,50.347446 528.758911,50.283215 525.381836,51.583263 
	C521.393555,53.118568 522.315369,59.712467 526.653503,63.104435 
	C529.825256,65.584427 533.278992,67.702003 536.475891,70.152176 
	C540.833069,73.491562 544.142761,77.434502 542.994568,83.514359 
	C542.180481,87.825096 539.828430,91.711563 535.762573,92.492851 
	C528.151123,93.955437 520.121399,94.027786 514.361938,87.605072 
	C511.832764,84.784645 510.579346,80.736191 509.167694,77.082634 
	C508.939880,76.493042 510.918640,75.050873 511.877411,74.002823 
	C512.917725,74.968681 514.895081,75.983559 514.847534,76.892525 
	C514.518005,83.192307 518.637329,85.396561 523.529175,86.981415 
	C527.402527,88.236336 531.322937,90.055267 535.051636,86.486870 
	C538.732849,82.963928 539.130066,80.407013 535.404663,77.023689 
	C530.844177,72.881912 525.797424,69.275642 520.682617,65.180679 
z"/>
<path fill="#FFFFFF" opacity="1.000000" stroke="none" 
	d="
M480.348480,40.849953 
	C476.187683,36.613438 471.179443,36.418159 466.330139,37.204681 
	C464.377075,37.521450 461.840546,39.674175 461.210815,41.544044 
	C460.032959,45.041756 461.295563,48.268074 465.104553,50.034550 
	C469.331268,51.994713 473.478699,54.128666 477.632935,56.241478 
	C484.050385,59.505352 486.886932,65.318977 484.843445,72.128738 
	C483.656036,76.085648 480.640930,78.334984 476.351624,79.233788 
	C468.253540,80.930710 460.703583,80.341064 454.796692,74.090523 
	C452.556488,71.720016 451.566925,68.167610 449.848846,64.847672 
	C453.871643,63.397957 455.482025,63.862343 456.711456,67.087883 
	C459.131592,73.437469 468.913879,77.392006 474.955383,74.278496 
	C477.159058,73.142822 479.655792,70.026909 479.638489,67.833168 
	C479.620514,65.547554 477.181488,62.612640 475.003052,61.150536 
	C470.359497,58.033916 465.100983,55.852013 460.279541,52.976719 
	C455.622620,50.199539 454.376343,45.766720 456.004364,39.601437 
	C457.101990,35.444630 461.420227,32.100891 466.028320,32.016720 
	C472.235687,31.903334 478.783234,31.164200 483.215851,36.840515 
	C485.269470,39.470314 486.520752,42.726681 488.610718,46.573116 
	C485.532288,46.835041 484.114685,46.955658 482.647247,47.080513 
	C481.943268,44.983196 481.294769,43.051102 480.348480,40.849953 
z"/>
<path fill="#FFFFFF" opacity="1.000000" stroke="none" 
	d="
M250.730255,85.000687 
	C245.468521,84.408539 241.747467,86.978340 238.704712,90.024773 
	C236.367950,92.364372 234.782318,96.068832 238.102600,98.835945 
	C240.055801,100.463730 243.161087,101.849838 245.549591,101.580887 
	C250.778717,100.992050 255.831940,98.978455 261.051392,98.121864 
	C265.143005,97.450371 269.355133,97.970230 272.132599,101.695496 
	C275.118042,105.699722 275.977966,110.034760 274.078857,114.950317 
	C270.860626,123.280128 255.188919,130.985016 247.058762,124.912361 
	C245.731155,123.920753 245.317230,121.705902 244.481018,120.056419 
	C246.211624,120.098221 248.310852,119.526955 249.600403,120.302307 
	C252.844116,122.252625 256.163208,122.977989 259.205383,120.907097 
	C262.746796,118.496368 266.170746,115.662460 268.849854,112.365509 
	C269.846680,111.138779 269.363831,107.398918 268.160522,106.045357 
	C266.823303,104.541107 263.804291,103.660789 261.675354,103.902069 
	C256.243591,104.517685 250.919586,106.023445 245.515442,106.959213 
	C239.285690,108.037941 234.218460,104.898781 231.947418,99.410789 
	C229.181717,92.727470 233.917984,86.509087 238.549149,83.193474 
	C243.006622,80.002205 248.244308,79.231819 253.494385,80.148224 
	C255.520737,80.501930 257.445251,82.256912 259.055603,83.759804 
	C259.670959,84.334114 259.277863,85.989029 259.344330,87.151505 
	C258.175568,87.216705 256.909332,87.597916 255.860474,87.274368 
	C254.213989,86.766472 252.714157,85.783234 250.730255,85.000687 
z"/>
<path fill="#FFFFFF" opacity="1.000000" stroke="none" 
	d="
M403.698547,35.682541 
	C402.028839,35.953499 400.731628,35.953499 399.027222,35.953499 
	C399.474396,40.986912 399.889008,45.653378 400.381073,51.192162 
	C407.592163,50.858940 415.054047,50.514126 422.751373,50.158436 
	C422.751373,51.669781 422.751373,53.077572 422.751373,54.967960 
	C415.299286,55.439281 407.799347,55.913635 400.632446,56.366920 
	C400.632446,61.700947 400.632446,67.048820 400.632446,71.784088 
	C408.007141,71.784088 414.910492,72.536301 421.541290,71.516426 
	C425.874054,70.850006 426.065918,72.207771 425.955841,75.997887 
	C421.827301,76.330292 417.669373,76.678741 413.509094,76.996346 
	C408.933929,77.345634 404.354279,77.637894 399.781067,78.010437 
	C396.987091,78.238037 396.008545,77.031380 395.947723,74.242310 
	C395.757050,65.498955 395.421539,56.756104 394.967896,48.022102 
	C394.680664,42.491512 394.082764,36.977055 393.596344,31.119713 
	C403.694153,30.612556 413.032867,30.143524 422.323730,29.676897 
	C422.953156,34.060871 422.400757,34.808765 418.466675,34.981838 
	C413.671082,35.192814 408.869812,35.274166 403.698547,35.682541 
z"/>
<path fill="#FFFFFF" opacity="1.000000" stroke="none" 
	d="
M206.289597,128.788239 
	C203.087357,125.606453 199.920425,122.853378 197.336227,119.632751 
	C196.461441,118.542534 197.060425,116.269814 196.985901,114.537483 
	C198.377670,114.912003 200.243912,114.839043 201.085999,115.731956 
	C207.731720,122.778748 214.310822,129.898376 220.648895,137.221939 
	C225.157593,142.431702 225.677658,148.886246 222.587463,154.577469 
	C218.753433,161.638641 212.394516,166.198288 203.791260,164.886642 
	C197.316620,163.899567 193.144302,158.884735 188.888931,154.365219 
	C184.486115,149.689102 179.988708,145.085571 175.879837,140.160675 
	C174.838745,138.912811 175.118042,136.563324 174.790619,134.720047 
	C176.418900,135.205688 178.539520,135.200119 179.594604,136.257645 
	C185.890228,142.567825 191.769897,149.296173 198.121826,155.546082 
	C204.043060,161.372177 208.978607,160.978729 214.975128,155.691360 
	C220.773636,150.578598 219.897278,143.738297 215.074265,138.578415 
	C212.162659,135.463440 209.388702,132.219833 206.289597,128.788239 
z"/>
<path fill="#B98264" opacity="1.000000" stroke="none" 
	d="
M642.238892,609.550415 
	C643.785400,604.170166 645.918884,603.589050 649.640869,607.144470 
	C657.294189,614.455261 664.948669,621.764832 673.227966,629.672058 
	C674.652222,628.147278 676.703125,625.524048 679.221741,623.476074 
	C680.164368,622.709656 682.196228,623.282776 683.731445,623.244995 
	C683.709106,624.779846 684.337708,626.928650 683.561096,627.752136 
	C677.512634,634.165466 671.263672,640.396118 664.927795,646.529297 
	C661.899841,649.460449 660.259949,648.680786 657.850891,643.030579 
	C660.562317,640.739258 663.480286,638.273499 666.903564,635.380676 
	C659.705017,628.191650 653.008911,621.565002 646.397339,614.855042 
	C644.914795,613.350403 643.728210,611.554138 642.238892,609.550415 
z"/>
<path fill="#B98264" opacity="1.000000" stroke="none" 
	d="
M402.223877,737.000000 
	C399.016846,736.590515 396.281982,736.181030 393.284729,735.732239 
	C393.284729,733.944580 393.284729,732.215881 393.284729,730.132996 
	C397.350647,730.132996 401.291748,730.132996 406.166046,730.132996 
	C406.860321,718.124390 407.538330,706.397156 408.235718,694.334045 
	C410.334045,694.334045 412.378937,694.334045 415.174683,694.334045 
	C414.571381,706.445129 413.970856,718.500977 413.348206,731.000000 
	C415.562653,731.000000 417.690735,730.997070 419.818787,731.000549 
	C426.200043,731.011047 426.200043,731.012024 425.787384,737.000000 
	C418.067780,737.000000 410.381897,737.000000 402.223877,737.000000 
z"/>
<path fill="#B98264" opacity="1.000000" stroke="none" 
	d="
M741.001099,260.999908 
	C734.109802,263.602325 727.606567,266.122131 720.851685,268.739410 
	C722.926025,274.445831 725.079529,280.048706 726.937866,285.747864 
	C727.319458,286.917999 726.596985,288.448120 726.383423,289.812347 
	C724.616760,289.321106 721.722351,289.316895 721.265869,288.259827 
	C718.235657,281.243347 715.613708,274.039429 713.192322,266.785187 
	C712.885254,265.865387 714.226501,263.574951 715.298035,263.141998 
	C726.313721,258.690979 737.411621,254.439224 748.544556,250.287308 
	C750.005127,249.742569 751.790833,250.069641 753.475586,249.990616 
	C754.067383,251.754990 754.573242,253.263290 755.297058,255.421249 
	C750.595276,257.279266 745.992188,259.098297 741.001099,260.999908 
z"/>
<path fill="#B98264" opacity="1.000000" stroke="none" 
	d="
M245.873016,686.950317 
	C246.022827,684.787781 246.126328,682.486328 247.144409,680.708618 
	C252.474091,671.402344 257.830597,662.097839 263.605621,653.066284 
	C266.377747,648.730957 265.813690,646.807007 272.476715,652.312988 
	C268.483154,659.171082 264.453949,666.165405 260.347931,673.114319 
	C257.787140,677.448120 254.806610,681.562683 252.578598,686.055420 
	C250.673294,689.897522 248.785538,689.441162 245.873016,686.950317 
z"/>
<path fill="#B98264" opacity="1.000000" stroke="none" 
	d="
M561.718872,666.321655 
	C562.900024,664.672913 564.131897,663.052979 565.763245,662.176575 
	C566.304504,661.885620 568.371582,663.254028 568.893860,664.290649 
	C574.188477,674.799133 579.238159,685.430969 584.529724,695.941040 
	C585.702209,698.269836 586.528137,700.400024 583.686951,701.604797 
	C581.329773,702.604370 579.074524,702.441223 577.631104,699.329712 
	C572.544250,688.364441 567.182800,677.526672 561.718872,666.321655 
z"/>
<path fill="#B98264" opacity="1.000000" stroke="none" 
	d="
M619.699402,104.338654 
	C622.747375,114.952072 621.949585,116.339729 611.374634,118.802544 
	C608.327515,119.512199 605.737183,118.936356 604.957825,115.257698 
	C604.825500,114.633095 604.404541,114.075592 604.195435,113.460403 
	C601.036987,104.169586 605.974548,98.454956 615.994934,100.159035 
	C617.338562,100.387527 618.334351,102.661293 619.699402,104.338654 
z"/>
<path fill="#B98264" opacity="1.000000" stroke="none" 
	d="
M113.027023,500.581604 
	C114.870155,504.399567 116.548843,507.885193 117.883400,511.497925 
	C118.178291,512.296265 117.523933,514.202087 116.849022,514.477905 
	C112.749832,516.152710 108.564964,517.682312 104.288391,518.800049 
	C103.501427,519.005737 102.112198,517.153320 101.113037,516.140320 
	C100.838028,515.861511 100.981956,515.181030 100.910095,514.688293 
	C100.404900,511.224304 96.037338,507.864227 99.314980,504.457886 
	C102.750961,500.886993 107.509399,499.253204 113.027023,500.581604 
z"/>
<path fill="#FFFFFF" opacity="1.000000" stroke="none" 
	d="
M302.241455,86.626358 
	C304.106476,90.602692 305.950623,94.174995 307.302612,97.924744 
	C307.690216,98.999748 306.655029,100.587761 306.272247,101.940559 
	C304.861664,101.385872 302.594025,101.201088 302.170685,100.220299 
	C296.915161,88.043877 291.838196,75.786919 286.990021,63.442791 
	C286.410370,61.967014 287.450806,59.854935 287.740295,58.037796 
	C289.102905,59.179279 291.081726,60.048592 291.725983,61.507339 
	C295.339752,69.689568 298.631683,78.013924 302.241455,86.626358 
z"/>
<path fill="#B98264" opacity="1.000000" stroke="none" 
	d="
M778.526855,440.261108 
	C784.455688,440.781433 786.232117,444.527863 783.599060,449.879761 
	C783.007446,451.082428 782.774597,452.458435 782.339050,453.741882 
	C781.860840,455.151001 781.339172,456.545410 780.836426,457.946198 
	C779.237732,456.859070 777.606140,455.814850 776.073364,454.641602 
	C775.824768,454.451324 775.933289,453.675598 776.013672,453.193298 
	C776.722412,448.940521 777.462036,444.692902 778.526855,440.261108 
z"/>
<path fill="#B98264" opacity="1.000000" stroke="none" 
	d="
M345.687958,733.707275 
	C351.300476,730.934021 351.300476,730.934021 355.854523,732.625366 
	C353.838898,738.124390 348.353302,740.268066 339.511841,737.933533 
	C342.069580,736.181763 343.718292,735.052612 345.687958,733.707275 
z"/>
<path fill="#000000" opacity="1.000000" stroke="none" 
	d="
M126.429764,241.405960 
	C125.890076,241.114761 125.575203,240.675201 125.260330,240.235641 
	C125.799980,240.276093 126.339630,240.316544 126.975906,240.637390 
	C126.933212,241.031052 126.793892,241.144333 126.429764,241.405960 
z"/>
<path fill="#000000" opacity="1.000000" stroke="none" 
	d="
M116.830391,317.515137 
	C119.410309,326.716034 113.632835,332.314545 104.412872,330.161926 
	C100.495361,329.247314 96.405762,328.950531 92.589745,327.751282 
	C88.065331,326.329407 86.454865,322.676544 87.009674,318.077362 
	C87.556290,313.546082 90.362343,309.964203 94.591568,310.236237 
	C102.350761,310.735413 110.634926,310.720398 116.830391,317.515137 
z"/>
<path fill="#000000" opacity="1.000000" stroke="none" 
	d="
M530.978821,697.001282 
	C528.878540,697.596802 527.218689,698.278320 525.500366,698.744263 
	C521.185608,699.914185 517.322266,698.169678 516.257568,694.515198 
	C514.946106,690.014221 517.888245,687.578857 521.252136,686.105896 
	C531.593811,681.577576 531.651428,681.709656 535.193359,692.488220 
	C535.490295,693.391846 535.791504,694.294067 536.152344,695.383179 
	C534.418945,695.968079 532.905762,696.478638 530.978821,697.001282 
z"/>
<path fill="#000000" opacity="1.000000" stroke="none" 
	d="
M527.374878,715.965149 
	C525.641846,713.964966 523.332275,712.000183 523.312134,710.012207 
	C523.295044,708.329224 525.614685,706.034851 527.455994,705.051025 
	C530.645081,703.346741 534.264099,702.446960 538.264709,701.007629 
	C539.336670,704.968262 540.320435,708.602783 541.459839,712.812622 
	C536.518127,713.961548 532.154419,714.976013 527.374878,715.965149 
z"/>
<path fill="#000000" opacity="1.000000" stroke="none" 
	d="
M176.999283,194.808075 
	C174.137909,199.830078 171.376663,204.512833 168.297867,208.976532 
	C167.885712,209.574081 165.560623,209.554459 164.648438,208.981522 
	C160.975128,206.674332 157.508667,204.037766 153.406799,201.126083 
	C156.480881,197.021866 159.331482,192.951157 162.470535,189.116577 
	C164.621857,186.488556 167.080994,184.378616 171.091797,185.923599 
	C175.128693,187.478622 177.042587,190.171295 176.999283,194.808075 
z"/>
<path fill="#000000" opacity="1.000000" stroke="none" 
	d="
M152.018127,174.002060 
	C159.444351,176.909363 160.667252,180.268967 157.040741,186.721161 
	C156.726883,187.279572 156.499496,187.926956 156.066116,188.371246 
	C153.270889,191.236801 150.417297,196.325195 147.606430,196.310043 
	C144.207214,196.291687 140.831360,191.940109 136.318436,188.639648 
	C141.413681,183.766495 146.518478,178.884201 152.018127,174.002060 
z"/>
<path fill="#000000" opacity="1.000000" stroke="none" 
	d="
M304.263123,702.409180 
	C303.650146,707.105896 301.469910,708.034424 297.795441,705.950012 
	C295.142395,704.445068 292.385468,703.077148 289.909271,701.318237 
	C286.762756,699.083069 287.649719,696.078674 289.301331,693.457825 
	C291.085449,690.626831 293.525513,688.783020 297.160248,690.601929 
	C298.173859,691.109192 299.218384,691.565369 300.277863,691.968445 
	C309.580475,695.507385 307.945587,694.546387 304.263123,702.409180 
z"/>
<path fill="#000000" opacity="1.000000" stroke="none" 
	d="
M626.264038,660.778809 
	C627.605347,662.838928 628.697876,664.640747 629.751709,666.378723 
	C626.767883,668.463989 623.845581,670.501160 620.928772,672.546204 
	C617.481018,674.963623 614.314270,674.281311 611.841431,671.223511 
	C609.453064,668.270142 608.725342,665.033752 612.285645,662.210999 
	C615.314148,659.809814 618.361511,657.432556 621.671936,654.831543 
	C623.264771,656.917847 624.640015,658.719177 626.264038,660.778809 
z"/>
<path fill="#000000" opacity="1.000000" stroke="none" 
	d="
M696.967407,217.745361 
	C698.572571,215.176208 699.736572,212.393066 701.824463,210.915894 
	C705.641541,208.215378 709.992737,206.264221 714.143799,204.042816 
	C719.341309,201.261475 722.652283,204.500565 725.414490,208.063522 
	C728.298584,211.783676 728.550049,216.546524 724.829895,219.347046 
	C719.326599,223.490021 713.200867,227.074493 706.853333,229.735504 
	C702.461914,231.576508 696.530518,224.120789 696.967407,217.745361 
z"/>
<path fill="#000000" opacity="1.000000" stroke="none" 
	d="
M752.206360,433.946655 
	C757.147827,435.543274 761.903259,436.623840 766.091980,438.796875 
	C770.189331,440.922607 769.718384,445.295807 768.415894,448.926025 
	C767.056091,452.716003 764.094971,455.334808 759.734802,454.940094 
	C754.703674,454.484680 749.567627,454.095917 744.740295,452.740814 
	C737.789124,450.789520 735.784729,445.669067 737.901672,440.054657 
	C740.171997,434.033478 745.062073,431.755981 752.206360,433.946655 
z"/>
<path fill="#000000" opacity="1.000000" stroke="none" 
	d="
M333.094543,56.869614 
	C332.677094,56.511169 332.434113,55.947521 332.191132,55.383869 
	C332.526428,55.515488 332.861755,55.647106 333.388306,56.001499 
	C333.476013,56.370987 333.372498,56.517700 333.094543,56.869614 
z"/>
<path fill="#000000" opacity="1.000000" stroke="none" 
	d="
M358.905457,70.130386 
	C359.322906,70.488838 359.565887,71.052483 359.808899,71.616135 
	C359.473572,71.484520 359.138245,71.352890 358.611694,70.998489 
	C358.523987,70.629013 358.627502,70.482300 358.905457,70.130386 
z"/>
<path fill="#000000" opacity="1.000000" stroke="none" 
	d="
M221.306183,645.289673 
	C217.904404,647.265808 214.808136,649.033142 210.795227,651.323730 
	C212.933426,644.822632 214.785950,639.190125 216.946228,632.621887 
	C220.905563,635.669495 224.377991,638.342285 228.249893,641.322632 
	C225.697525,642.767700 223.654602,643.924316 221.306183,645.289673 
z"/>
<path fill="#000000" opacity="1.000000" stroke="none" 
	d="
M362.758484,709.752930 
	C360.218079,713.524719 357.932190,717.026001 355.259064,721.120483 
	C354.124054,714.104065 353.108521,707.826477 352.019836,701.096558 
	C356.888916,702.211365 361.354553,703.233826 366.271881,704.359741 
	C365.051605,706.277893 364.032288,707.880249 362.758484,709.752930 
z"/>
</svg>