<?xml version="1.0" encoding="UTF-8"?>
<svg xmlns="http://www.w3.org/2000/svg" version="1.1" viewBox="0 0 110 135">
  <!-- Generator: Adobe Illustrator 28.7.10, SVG Export Plug-In . SVG Version: 1.2.0 Build 236)  -->
  <g>
    <g id="Camada_1">
      <path d="M30,45.2c-1.3,1.3-2,3-2,4.8s.7,3.5,2,4.8l10.6,10.6c.7.7,2.1.7,2.8,0,.4-.4.6-.9.6-1.4s-.2-1-.6-1.4l-10.6-10.6h30.2c8.3,0,15,6.7,15,15s-6.7,15-15,15h-29c-1.1,0-2,.9-2,2s.9,2,2,2h29c10.5,0,19-8.5,19-19s-8.5-19-19-19h-30.2l10.6-10.6c.4-.4.6-.9.6-1.4s-.2-1-.6-1.4c-.8-.8-2.1-.8-2.8,0l-10.6,10.6h0Z"/>
    </g>
  </g>
</svg>